{"glyphs":{"0":{"ha":822,"x_min":58,"x_max":763,"o":"m 408 -25 q 151 97 243 -25 q 58 479 58 218 q 83 706 58 610 q 155 864 108 801 q 267 956 201 926 q 414 986 332 986 q 560 956 496 986 q 670 864 625 926 q 739 706 715 801 q 763 479 763 610 q 739 253 763 349 q 669 97 715 158 q 558 5 624 35 q 408 -25 492 -25 m 411 83 q 516 110 474 83 q 584 188 558 138 q 622 313 610 239 q 633 479 633 386 q 622 646 633 572 q 584 771 610 719 q 516 849 558 822 q 411 876 474 876 q 306 849 349 876 q 237 771 263 822 q 199 646 211 719 q 188 479 188 572 q 199 313 188 386 q 237 188 211 239 q 306 110 263 138 q 411 83 349 83 z "},"1":{"ha":822,"x_min":138,"x_max":536,"o":"m 411 825 l 190 692 l 138 782 l 424 960 l 536 960 l 536 0 l 411 0 l 411 825 z "},"2":{"ha":822,"x_min":82,"x_max":732,"o":"m 90 100 q 204 200 143 147 q 328 308 265 253 q 444 415 394 367 q 528 507 494 463 q 578 597 561 551 q 594 696 594 643 q 547 830 594 783 q 415 876 500 876 q 328 865 364 876 q 267 833 292 854 q 226 779 242 811 q 197 704 210 747 l 82 722 q 117 819 94 772 q 178 903 139 867 q 275 963 217 940 q 418 986 333 986 q 549 965 492 986 q 644 908 606 944 q 702 819 682 871 q 722 706 722 768 q 705 589 722 643 q 651 482 688 535 q 560 374 615 429 q 428 253 504 318 q 345 183 388 218 q 263 111 303 147 l 732 111 l 714 0 l 90 0 l 90 100 z "},"3":{"ha":822,"x_min":69,"x_max":733,"o":"m 190 265 q 249 127 201 172 q 407 82 296 82 q 557 130 506 82 q 608 269 608 178 q 556 404 608 364 q 414 444 504 444 l 304 444 l 304 554 l 418 554 q 542 597 497 554 q 588 724 588 640 q 541 838 588 799 q 403 878 494 878 q 262 839 308 878 q 192 717 215 800 l 78 735 q 110 828 88 783 q 170 909 132 874 q 267 965 208 944 q 407 986 325 986 q 542 967 485 986 q 636 913 599 947 q 692 834 674 879 q 711 738 711 789 q 678 601 711 656 q 574 511 644 547 q 695 418 657 478 q 733 275 733 358 q 714 155 733 210 q 654 60 694 100 q 553 -3 614 19 q 410 -25 492 -25 q 247 2 311 -25 q 143 71 182 29 q 88 164 104 113 q 69 265 72 215 l 190 265 z "},"4":{"ha":822,"x_min":54,"x_max":761,"o":"m 54 329 l 511 960 l 629 960 l 629 338 l 761 338 l 744 239 l 629 239 l 629 0 l 513 0 l 513 239 l 54 239 l 54 329 m 513 338 l 513 800 l 181 338 l 513 338 z "},"5":{"ha":822,"x_min":92,"x_max":732,"o":"m 211 246 q 271 122 226 161 q 414 82 315 82 q 558 136 506 82 q 610 307 610 190 q 565 459 610 401 q 415 517 519 517 q 303 497 350 517 q 217 435 256 476 l 111 435 l 154 960 l 676 960 l 676 850 l 256 850 l 229 551 q 322 601 274 585 q 438 617 371 617 q 572 592 515 617 q 663 526 628 568 q 715 427 699 483 q 732 308 732 371 q 647 60 732 144 q 417 -25 561 -25 q 184 43 265 -25 q 92 246 103 111 l 211 246 z "},"6":{"ha":822,"x_min":85,"x_max":749,"o":"m 621 749 q 597 807 610 782 q 563 849 583 832 q 515 873 543 865 q 446 881 488 881 q 351 860 393 881 q 277 794 308 840 q 227 674 246 749 q 204 490 208 600 q 311 587 249 557 q 457 617 374 617 q 590 592 535 617 q 680 526 644 568 q 732 426 715 483 q 749 301 749 368 q 726 168 749 228 q 660 65 703 108 q 556 -1 617 22 q 419 -25 494 -25 q 253 15 318 -25 q 151 117 189 54 q 99 259 114 181 q 85 417 85 338 q 115 694 85 585 q 196 869 146 804 q 311 960 246 933 q 447 986 376 986 q 644 930 579 986 q 732 768 710 874 l 621 749 m 419 76 q 572 135 515 76 q 629 297 629 193 q 619 383 629 343 q 585 453 608 424 q 525 500 563 483 q 433 517 488 517 q 351 504 392 517 q 281 464 311 492 q 234 393 251 436 q 219 289 217 350 q 235 209 221 247 q 274 142 249 171 q 335 94 299 113 q 419 76 371 76 z "},"7":{"ha":822,"x_min":61,"x_max":715,"o":"m 235 0 q 386 437 301 225 q 579 850 471 649 l 61 850 l 61 960 l 715 960 l 715 857 q 519 440 604 651 q 371 0 433 229 l 235 0 z "},"8":{"ha":822,"x_min":57,"x_max":764,"o":"m 233 490 q 129 570 172 514 q 86 718 86 626 q 106 824 86 775 q 165 908 125 872 q 267 965 206 944 q 411 986 328 986 q 557 966 496 986 q 658 910 618 946 q 716 824 697 874 q 735 718 735 775 q 692 572 735 626 q 589 494 650 517 q 649 466 618 485 q 705 419 679 447 q 747 351 731 390 q 764 260 764 311 q 742 143 764 196 q 676 53 721 90 q 566 -5 632 15 q 411 -25 500 -25 q 256 -5 322 -25 q 144 53 189 15 q 78 143 100 90 q 57 260 57 196 q 75 349 57 310 q 119 416 93 388 q 175 463 144 444 q 233 490 206 481 m 204 713 q 253 583 204 626 q 411 540 303 540 q 569 583 519 540 q 618 714 618 626 q 607 781 618 749 q 571 836 596 813 q 506 874 546 860 q 411 888 467 888 q 316 874 356 888 q 251 835 276 860 q 215 779 226 811 q 204 713 204 747 m 182 258 q 237 126 182 176 q 413 75 292 75 q 586 126 532 75 q 640 260 640 176 q 628 331 640 299 q 590 388 617 364 q 520 424 564 411 q 413 436 476 436 q 303 423 347 436 q 233 387 260 410 q 194 331 206 364 q 182 258 182 297 z "},"9":{"ha":822,"x_min":67,"x_max":729,"o":"m 208 211 q 264 109 222 140 q 386 78 306 78 q 484 99 442 78 q 554 167 526 119 q 596 288 582 214 q 610 471 610 363 q 360 343 522 343 q 227 367 282 343 q 136 434 172 392 q 83 535 100 476 q 67 660 67 593 q 90 792 67 732 q 157 896 114 853 q 261 963 200 939 q 397 986 322 986 q 560 946 496 986 q 661 840 624 906 q 714 693 699 775 q 729 529 729 611 q 715 313 729 414 q 663 138 701 213 q 559 19 625 63 q 389 -25 493 -25 q 178 32 254 -25 q 90 211 103 89 l 208 211 m 385 444 q 464 457 426 444 q 531 495 501 469 q 577 561 560 521 q 594 657 594 601 q 583 740 594 699 q 547 813 571 781 q 485 865 522 846 q 397 885 449 885 q 245 826 301 885 q 189 664 189 768 q 199 578 189 618 q 231 508 208 538 q 292 462 254 479 q 385 444 329 444 z "},"\u0000":{"ha":0,"x_min":0,"x_max":0,"o":""}," ":{"ha":310,"x_min":0,"x_max":0,"o":""},"!":{"ha":319,"x_min":93,"x_max":228,"o":"m 99 992 l 222 992 l 218 285 l 103 285 l 99 992 m 93 161 l 228 161 l 228 0 l 93 0 l 93 161 z "},"\"":{"ha":464,"x_min":56,"x_max":408,"o":"m 56 986 l 178 986 l 168 636 l 64 636 l 56 986 m 286 986 l 408 986 l 399 636 l 294 636 l 286 986 z "},"#":{"ha":822,"x_min":25,"x_max":796,"o":"m 157 244 l 25 244 l 25 335 l 172 335 l 218 610 l 74 610 l 74 700 l 235 700 l 274 942 l 382 942 l 340 700 l 561 700 l 600 942 l 708 942 l 669 700 l 796 700 l 796 610 l 654 610 l 608 335 l 746 335 l 746 244 l 592 244 l 553 0 l 444 0 l 486 244 l 265 244 l 225 0 l 118 0 l 157 244 m 500 335 l 546 610 l 326 610 l 281 335 l 500 335 z "},"$":{"ha":822,"x_min":51,"x_max":746,"o":"m 361 -21 q 140 63 217 -10 q 51 264 63 135 l 169 264 q 361 79 188 97 l 361 439 l 347 442 q 232 473 282 453 q 147 526 182 493 q 94 607 113 558 q 76 722 76 656 q 97 822 76 776 q 153 901 117 867 q 243 956 190 935 q 361 983 296 976 l 361 1100 l 453 1100 l 453 985 q 581 953 529 978 q 666 892 633 928 q 715 815 699 857 q 739 733 732 774 l 625 713 q 603 776 617 747 q 571 828 590 806 q 522 865 551 850 q 453 885 493 879 l 453 539 l 472 536 q 676 450 607 515 q 746 254 746 385 q 728 153 746 201 q 673 68 710 106 q 581 7 636 31 q 453 -22 526 -17 l 453 -153 l 361 -153 l 361 -21 m 453 78 q 582 135 542 88 q 622 254 622 183 q 616 307 622 281 q 592 356 610 333 q 544 396 575 379 q 465 421 514 413 l 453 422 l 453 78 m 361 885 q 231 828 268 874 q 194 728 194 783 q 201 667 194 694 q 227 619 208 640 q 278 581 246 597 q 361 556 311 565 l 361 885 z "},"%":{"ha":1275,"x_min":49,"x_max":1225,"o":"m 451 0 l 333 0 l 821 960 l 939 960 l 451 0 m 983 -26 q 887 -8 931 -26 q 810 46 843 10 q 760 138 778 82 q 742 272 742 194 q 760 405 742 349 q 812 498 779 461 q 888 553 844 535 q 983 571 932 571 q 1081 553 1036 571 q 1157 498 1125 535 q 1207 405 1189 461 q 1225 272 1225 349 q 1208 138 1225 194 q 1158 46 1190 82 q 1082 -8 1126 10 q 983 -26 1038 -26 m 983 72 q 1079 120 1046 72 q 1113 272 1113 168 q 1079 424 1113 375 q 983 472 1046 472 q 888 424 921 472 q 854 272 854 375 q 888 120 854 168 q 983 72 921 72 m 290 385 q 194 403 238 385 q 117 457 150 421 q 67 549 85 493 q 49 683 49 606 q 67 816 49 760 q 119 909 86 872 q 195 964 151 946 q 290 982 239 982 q 388 964 343 982 q 464 909 432 946 q 514 816 496 872 q 532 683 532 760 q 515 549 532 606 q 465 457 497 493 q 389 403 433 421 q 290 385 344 385 m 290 483 q 386 531 353 483 q 419 683 419 579 q 386 835 419 786 q 290 883 353 883 q 194 835 228 883 q 161 683 161 786 q 194 531 161 579 q 290 483 228 483 z "},"&":{"ha":885,"x_min":49,"x_max":883,"o":"m 667 86 q 550 8 619 38 q 392 -22 481 -22 q 228 1 294 -22 q 123 63 163 24 q 66 153 83 101 q 49 260 49 204 q 67 359 49 315 q 115 438 85 403 q 184 502 144 474 q 268 554 224 531 q 197 655 231 599 q 164 782 164 711 q 181 867 164 828 q 228 935 197 907 q 301 981 258 964 q 396 997 344 997 q 496 981 453 997 q 567 938 539 965 q 610 872 596 910 q 625 793 625 835 q 609 706 625 743 q 566 638 593 668 q 503 583 539 607 q 428 535 467 558 l 665 256 q 695 357 688 307 q 706 467 703 407 l 818 467 q 794 308 815 383 q 738 169 774 232 l 883 0 l 740 0 l 667 86 m 328 482 q 269 444 297 464 q 220 399 242 424 q 186 343 199 374 q 174 275 174 313 q 185 197 174 233 q 222 133 196 160 q 292 92 249 107 q 403 76 336 76 q 521 101 472 76 q 600 161 569 125 l 328 482 m 369 601 q 421 633 394 615 q 469 673 447 651 q 503 722 490 694 q 517 785 517 750 q 484 876 517 846 q 399 907 451 907 q 309 874 340 907 q 278 781 278 842 q 307 683 278 728 q 369 601 336 639 z "},"'":{"ha":233,"x_min":56,"x_max":178,"o":"m 56 986 l 178 986 l 168 636 l 64 636 l 56 986 z "},"(":{"ha":365,"x_min":74,"x_max":350,"o":"m 235 -172 q 115 104 156 -51 q 74 424 74 260 q 115 743 74 588 q 235 1019 156 899 l 350 1019 q 236 730 269 876 q 203 424 203 583 q 236 117 203 264 q 350 -172 269 -29 l 235 -172 z "},")":{"ha":365,"x_min":15,"x_max":292,"o":"m 15 -172 q 129 117 96 -29 q 163 424 163 264 q 129 730 163 583 q 15 1019 96 876 l 131 1019 q 251 743 210 899 q 292 424 292 588 q 251 104 292 260 q 131 -172 210 -51 l 15 -172 z "},"*":{"ha":542,"x_min":42,"x_max":500,"o":"m 211 739 l 42 789 l 86 890 l 233 814 l 214 992 l 329 992 l 310 814 l 457 890 l 500 789 l 332 739 l 463 597 l 372 532 l 272 685 l 171 532 l 81 597 l 211 739 z "},"+":{"ha":822,"x_min":89,"x_max":733,"o":"m 356 419 l 89 419 l 89 526 l 356 526 l 356 813 l 467 813 l 467 526 l 733 526 l 733 419 l 467 419 l 467 133 l 356 133 l 356 419 z "},",":{"ha":310,"x_min":63,"x_max":232,"o":"m 104 165 l 232 165 l 160 -135 l 63 -135 l 104 165 z "},"-":{"ha":542,"x_min":67,"x_max":475,"o":"m 67 467 l 475 467 l 475 346 l 67 346 l 67 467 z "},".":{"ha":311,"x_min":86,"x_max":225,"o":"m 86 163 l 225 163 l 225 0 l 86 0 l 86 163 z "},"/":{"ha":460,"x_min":10,"x_max":450,"o":"m 135 0 l 10 0 l 325 1019 l 450 1019 l 135 0 z "},":":{"ha":311,"x_min":86,"x_max":225,"o":"m 86 163 l 225 163 l 225 0 l 86 0 l 86 163 m 86 718 l 225 718 l 225 556 l 86 556 l 86 718 z "},";":{"ha":311,"x_min":63,"x_max":232,"o":"m 86 718 l 225 718 l 225 556 l 86 556 l 86 718 m 104 165 l 232 165 l 160 -135 l 63 -135 l 104 165 z "},"<":{"ha":822,"x_min":107,"x_max":731,"o":"m 107 518 l 731 807 l 731 690 l 247 472 l 731 254 l 731 135 l 107 424 l 107 518 z "},"=":{"ha":822,"x_min":111,"x_max":711,"o":"m 111 372 l 711 372 l 711 264 l 111 264 l 111 372 m 111 682 l 711 682 l 711 574 l 111 574 l 111 682 z "},">":{"ha":822,"x_min":92,"x_max":715,"o":"m 92 253 l 572 468 l 92 689 l 92 807 l 715 518 l 715 424 l 92 135 l 92 253 z "},"?":{"ha":696,"x_min":28,"x_max":636,"o":"m 272 306 q 286 387 272 351 q 322 451 300 422 q 370 507 343 481 q 422 560 397 533 q 483 633 456 592 q 511 738 511 674 q 472 858 514 813 q 346 904 429 904 q 209 864 256 904 q 139 735 163 824 l 28 753 q 60 849 38 803 q 119 930 82 894 q 213 987 157 965 q 347 1008 269 1008 q 472 990 418 1008 q 562 936 525 971 q 617 854 599 901 q 636 751 636 807 q 603 614 636 668 q 526 517 571 560 q 477 468 501 492 q 434 419 453 444 q 403 366 415 394 q 392 303 392 338 l 392 285 l 272 285 l 272 306 m 264 161 l 399 161 l 399 0 l 264 0 l 264 161 z "},"@":{"ha":1325,"x_min":63,"x_max":1271,"o":"m 1111 -76 q 936 -238 1049 -179 q 643 -297 824 -297 q 409 -258 515 -297 q 226 -147 303 -219 q 106 31 149 -74 q 63 265 63 135 q 90 481 63 385 q 166 652 118 578 q 277 780 214 726 q 410 868 340 833 q 553 919 481 903 q 694 935 626 935 q 924 901 818 935 q 1106 801 1029 867 q 1227 641 1183 736 q 1271 424 1271 546 q 1246 238 1271 318 q 1178 104 1221 158 q 1078 22 1136 50 q 957 -6 1021 -6 q 849 19 892 -6 q 797 103 807 43 q 699 13 753 40 q 582 -14 646 -14 q 482 6 525 -14 q 409 62 439 26 q 364 144 379 97 q 349 246 349 192 q 373 403 349 332 q 440 527 397 475 q 543 608 483 579 q 674 636 603 636 q 777 610 732 636 q 851 532 822 585 q 859 576 854 551 q 868 621 864 601 l 978 621 l 897 169 q 894 149 894 156 q 964 79 894 79 q 1041 99 1004 79 q 1106 161 1078 119 q 1150 265 1133 203 q 1167 414 1167 328 q 1133 596 1167 517 q 1036 729 1099 675 q 887 812 974 783 q 694 840 800 840 q 486 799 582 840 q 320 683 390 758 q 211 503 250 608 q 172 271 172 399 q 205 74 172 161 q 299 -76 238 -14 q 450 -171 361 -137 q 650 -204 539 -204 q 774 -195 721 -204 q 867 -169 826 -186 q 936 -129 907 -153 q 990 -76 965 -106 l 1111 -76 m 810 336 q 815 369 813 353 q 815 404 817 386 q 806 455 814 429 q 783 500 799 481 q 741 532 767 519 q 679 544 715 544 q 599 526 638 544 q 532 472 561 508 q 485 382 503 436 q 468 257 468 328 q 506 125 468 168 q 601 82 543 82 q 686 100 651 82 q 744 148 721 118 q 782 217 768 178 q 804 300 796 257 l 810 336 z "},"A":{"ha":936,"x_min":15,"x_max":921,"o":"m 401 992 l 536 992 l 921 0 l 782 0 l 678 276 l 253 276 l 149 0 l 15 0 l 401 992 m 639 388 l 464 847 l 292 388 l 639 388 z "},"B":{"ha":878,"x_min":110,"x_max":821,"o":"m 110 992 l 439 992 q 613 972 544 992 q 720 917 681 951 q 775 837 760 883 q 790 738 790 790 q 759 615 790 669 q 650 525 728 561 q 733 480 700 506 q 785 423 765 454 q 813 358 806 392 q 821 288 821 324 q 802 174 821 226 q 742 83 783 122 q 632 22 700 44 q 464 0 564 0 l 110 0 l 110 992 m 456 572 q 617 613 568 572 q 665 733 665 654 q 613 850 665 814 q 435 886 561 886 l 235 886 l 235 572 l 456 572 m 460 106 q 573 118 528 106 q 645 153 618 131 q 683 209 672 176 q 693 283 693 242 q 642 417 693 371 q 469 464 590 464 l 235 464 l 235 106 l 460 106 z "},"C":{"ha":986,"x_min":75,"x_max":922,"o":"m 922 326 q 885 187 914 251 q 806 75 856 122 q 684 1 756 28 q 518 -25 613 -25 q 333 10 415 -25 q 194 111 251 44 q 106 274 138 178 q 75 494 75 371 q 108 717 75 619 q 201 881 142 814 q 342 982 261 947 q 518 1017 424 1017 q 676 993 610 1017 q 790 926 743 969 q 865 824 836 883 q 908 692 893 764 l 783 671 q 751 769 771 725 q 699 843 731 813 q 624 890 668 874 q 518 906 581 906 q 387 876 444 906 q 290 792 329 846 q 229 663 250 739 q 208 496 208 588 q 229 328 208 404 q 290 199 250 253 q 387 115 329 144 q 519 86 444 86 q 635 103 588 86 q 715 153 683 121 q 764 229 746 185 q 790 326 782 274 l 922 326 z "},"D":{"ha":992,"x_min":110,"x_max":918,"o":"m 110 992 l 457 992 q 651 962 565 992 q 795 871 736 932 q 886 718 854 810 q 918 503 918 626 q 884 283 918 378 q 786 126 850 189 q 631 32 722 64 q 425 0 539 0 l 110 0 l 110 992 m 431 111 q 700 215 615 111 q 785 500 785 318 q 766 661 785 590 q 708 781 747 732 q 606 856 668 831 q 457 882 543 882 l 238 882 l 238 111 l 431 111 z "},"E":{"ha":825,"x_min":110,"x_max":778,"o":"m 110 992 l 751 992 l 751 879 l 238 879 l 238 568 l 724 568 l 724 454 l 238 454 l 238 113 l 778 113 l 757 0 l 110 0 l 110 992 z "},"F":{"ha":783,"x_min":110,"x_max":725,"o":"m 110 992 l 725 992 l 725 879 l 238 879 l 238 554 l 694 554 l 694 439 l 238 439 l 238 0 l 110 0 l 110 992 z "},"G":{"ha":994,"x_min":75,"x_max":915,"o":"m 544 510 l 915 510 l 915 113 q 833 52 878 78 q 738 9 788 26 q 637 -17 689 -8 q 535 -25 585 -25 q 340 10 425 -25 q 195 113 254 46 q 106 276 136 179 q 75 494 75 372 q 108 717 75 619 q 201 881 142 814 q 342 982 260 947 q 521 1017 424 1017 q 668 997 604 1017 q 777 939 732 976 q 851 849 822 901 q 896 733 881 797 l 772 713 q 742 792 761 756 q 694 853 724 828 q 623 893 665 879 q 521 907 581 907 q 385 877 443 907 q 288 793 326 847 q 228 663 249 739 q 208 496 208 588 q 228 328 208 404 q 288 199 247 253 q 390 115 329 144 q 535 86 451 86 q 676 104 610 86 q 794 161 742 122 l 794 399 l 544 399 l 544 510 z "},"H":{"ha":976,"x_min":110,"x_max":867,"o":"m 110 992 l 238 992 l 238 572 l 739 572 l 739 992 l 867 992 l 867 0 l 739 0 l 739 453 l 238 453 l 238 0 l 110 0 l 110 992 z "},"I":{"ha":347,"x_min":110,"x_max":238,"o":"m 110 992 l 238 992 l 238 0 l 110 0 l 110 992 z "},"J":{"ha":829,"x_min":38,"x_max":729,"o":"m 167 297 q 186 213 172 251 q 226 146 200 174 q 291 102 251 118 q 389 86 331 86 q 553 151 506 86 q 601 336 601 217 l 601 992 l 729 992 l 729 326 q 639 63 729 150 q 392 -25 549 -25 q 144 53 236 -25 q 38 297 53 131 l 167 297 z "},"K":{"ha":903,"x_min":110,"x_max":886,"o":"m 110 992 l 239 992 l 239 517 l 704 992 l 850 992 l 496 621 l 886 0 l 739 0 l 403 536 l 239 372 l 239 0 l 110 0 l 110 992 z "},"L":{"ha":781,"x_min":110,"x_max":751,"o":"m 110 992 l 238 992 l 238 114 l 751 114 l 732 0 l 110 0 l 110 992 z "},"M":{"ha":1175,"x_min":110,"x_max":1065,"o":"m 110 992 l 268 992 l 588 153 l 913 992 l 1065 992 l 1065 0 l 947 0 l 947 782 l 636 0 l 532 0 l 226 779 l 226 0 l 110 0 l 110 992 z "},"N":{"ha":974,"x_min":110,"x_max":864,"o":"m 110 992 l 236 992 l 740 204 l 740 992 l 864 992 l 864 0 l 742 0 l 233 783 l 233 0 l 110 0 l 110 992 z "},"O":{"ha":1063,"x_min":75,"x_max":988,"o":"m 532 -25 q 347 9 431 -25 q 202 109 263 43 q 108 272 142 175 q 75 494 75 369 q 109 717 75 619 q 203 881 143 814 q 348 982 264 947 q 532 1017 432 1017 q 717 983 633 1017 q 861 883 801 949 q 954 720 921 817 q 988 499 988 624 q 955 276 988 374 q 863 111 922 178 q 719 10 803 44 q 532 -25 635 -25 m 532 86 q 672 115 611 86 q 772 198 732 144 q 833 327 813 251 q 854 496 854 403 q 833 663 854 588 q 772 793 813 739 q 671 876 731 847 q 532 906 611 906 q 391 876 451 906 q 290 793 331 847 q 228 663 249 739 q 208 496 208 588 q 228 327 208 403 q 289 198 249 251 q 390 115 329 144 q 532 86 450 86 z "},"P":{"ha":869,"x_min":110,"x_max":808,"o":"m 110 992 l 442 992 q 623 968 551 992 q 735 904 694 944 q 792 810 776 864 q 808 697 808 757 q 792 578 808 635 q 733 478 775 521 q 621 410 692 435 q 442 385 550 385 l 236 385 l 236 0 l 110 0 l 110 992 m 440 493 q 560 507 513 493 q 633 547 607 521 q 670 610 660 574 q 681 693 681 647 q 669 776 681 740 q 631 836 658 813 q 556 872 603 860 q 439 883 510 883 l 236 883 l 236 493 l 440 493 z "},"Q":{"ha":1063,"x_min":75,"x_max":988,"o":"m 768 33 q 659 -10 718 6 q 532 -25 600 -25 q 347 9 431 -25 q 202 109 263 43 q 108 272 142 175 q 75 494 75 369 q 109 717 75 619 q 203 881 143 814 q 348 982 264 947 q 532 1017 432 1017 q 717 983 633 1017 q 861 883 801 949 q 954 720 921 817 q 988 499 988 624 q 953 267 988 368 q 853 100 918 167 l 974 -43 l 892 -114 l 768 33 m 569 274 l 651 343 l 772 197 q 854 496 854 307 q 833 663 854 588 q 772 793 813 739 q 671 876 731 847 q 532 906 611 906 q 391 876 451 906 q 290 793 331 847 q 228 663 249 739 q 208 496 208 588 q 228 327 208 403 q 289 198 249 251 q 390 115 329 144 q 532 86 450 86 q 692 126 624 86 l 569 274 z "},"R":{"ha":878,"x_min":110,"x_max":839,"o":"m 110 992 l 435 992 q 617 967 546 992 q 728 902 688 942 q 785 813 769 863 q 800 711 800 763 q 760 550 800 617 q 631 446 721 483 l 839 0 l 696 0 l 508 415 q 469 412 490 413 q 432 411 449 411 l 236 411 l 236 0 l 110 0 l 110 992 m 447 521 q 557 534 514 521 q 625 572 600 547 q 660 631 650 596 q 669 708 669 665 q 658 782 669 750 q 620 837 647 814 q 547 872 593 860 q 431 883 501 883 l 236 883 l 236 521 l 447 521 z "},"S":{"ha":893,"x_min":54,"x_max":825,"o":"m 182 282 q 265 131 199 178 q 461 85 331 85 q 570 99 526 85 q 640 138 614 114 q 678 195 667 163 q 689 264 689 228 q 682 320 689 293 q 655 369 675 347 q 599 408 635 392 q 508 435 564 425 l 383 457 q 253 490 310 469 q 156 544 196 511 q 97 625 117 576 q 76 743 76 674 q 105 863 76 811 q 182 949 133 914 q 297 1000 231 983 q 442 1017 364 1017 q 606 995 540 1017 q 714 938 672 974 q 777 855 756 901 q 810 760 799 808 l 690 736 q 662 810 679 778 q 616 865 644 843 q 546 897 588 886 q 444 908 504 908 q 331 896 376 908 q 257 862 285 883 q 217 810 229 840 q 206 747 206 781 q 215 684 206 711 q 245 637 224 657 q 301 603 267 617 q 388 581 336 590 l 526 556 q 753 459 681 526 q 825 261 825 392 q 802 149 825 201 q 734 58 779 97 q 621 -3 689 19 q 461 -25 553 -25 q 302 -8 374 -25 q 178 47 231 10 q 93 143 125 85 q 54 282 61 201 l 182 282 z "},"T":{"ha":835,"x_min":25,"x_max":810,"o":"m 353 878 l 25 878 l 25 992 l 810 992 l 810 878 l 482 878 l 482 0 l 353 0 l 353 878 z "},"U":{"ha":947,"x_min":99,"x_max":849,"o":"m 99 992 l 226 992 l 226 393 q 284 163 226 239 q 475 86 342 86 q 665 163 610 86 q 721 393 721 240 l 721 992 l 849 992 l 849 393 q 823 203 849 282 q 749 74 797 125 q 631 -1 701 22 q 474 -25 561 -25 q 197 75 294 -25 q 99 399 99 175 l 99 992 z "},"V":{"ha":925,"x_min":18,"x_max":908,"o":"m 18 992 l 163 992 l 464 165 l 771 992 l 908 992 l 528 0 l 399 0 l 18 992 z "},"W":{"ha":1293,"x_min":17,"x_max":1276,"o":"m 17 992 l 161 992 l 368 176 l 583 988 l 721 988 l 935 176 l 1140 992 l 1276 992 l 1001 0 l 867 0 l 646 829 l 429 0 l 299 0 l 17 992 z "},"X":{"ha":886,"x_min":15,"x_max":871,"o":"m 365 524 l 42 992 l 192 992 l 442 615 l 696 992 l 833 992 l 513 518 l 871 0 l 722 0 l 435 422 l 156 0 l 15 0 l 365 524 z "},"Y":{"ha":851,"x_min":18,"x_max":832,"o":"m 364 421 l 18 992 l 165 992 l 428 533 l 697 992 l 832 992 l 493 421 l 493 0 l 364 0 l 364 421 z "},"Z":{"ha":814,"x_min":43,"x_max":781,"o":"m 43 99 l 613 879 l 53 879 l 53 992 l 764 992 l 764 892 l 196 114 l 781 114 l 761 0 l 43 0 l 43 99 z "},"[":{"ha":393,"x_min":104,"x_max":378,"o":"m 104 1019 l 378 1019 l 378 915 l 228 915 l 228 -68 l 378 -68 l 378 -172 l 104 -172 l 104 1019 z "},"\\":{"ha":460,"x_min":10,"x_max":450,"o":"m 133 1019 l 450 0 l 326 0 l 10 1019 l 133 1019 z "},"]":{"ha":393,"x_min":15,"x_max":288,"o":"m 15 -68 l 164 -68 l 164 915 l 15 915 l 15 1019 l 288 1019 l 288 -172 l 15 -172 l 15 -68 z "},"^":{"ha":822,"x_min":78,"x_max":744,"o":"m 360 985 l 463 985 l 744 419 l 615 419 l 408 846 l 203 419 l 78 419 l 360 985 z "},"_":{"ha":694,"x_min":0,"x_max":694,"o":"m 0 -171 l 694 -171 l 694 -243 l 0 -243 l 0 -171 z "},"`":{"ha":543,"x_min":118,"x_max":425,"o":"m 118 1018 l 267 1018 l 425 821 l 306 821 l 118 1018 z "},"a":{"ha":747,"x_min":47,"x_max":657,"o":"m 540 99 q 442 17 501 51 q 293 -17 382 -17 q 194 -3 239 -17 q 116 37 149 10 q 65 104 83 64 q 47 199 47 144 q 78 318 47 272 q 162 390 110 364 q 279 428 214 417 q 414 442 344 439 l 538 446 l 538 474 q 499 606 538 565 q 372 646 460 646 q 246 617 286 646 q 193 539 206 589 l 83 551 q 176 695 103 650 q 376 740 250 740 q 508 722 454 740 q 594 668 561 703 q 642 582 628 633 q 657 467 657 531 l 657 0 l 540 0 l 540 99 m 538 360 l 422 356 q 300 342 349 353 q 223 312 251 331 q 183 265 194 293 q 171 201 171 238 q 203 115 171 147 q 311 82 236 82 q 478 135 418 82 q 538 279 538 188 l 538 360 z "},"b":{"ha":829,"x_min":93,"x_max":760,"o":"m 93 992 l 214 992 l 214 618 q 317 708 258 676 q 454 740 375 740 q 588 713 531 740 q 684 635 646 685 q 741 516 722 585 q 760 364 760 447 q 738 203 760 275 q 674 82 715 132 q 573 5 632 32 q 440 -22 514 -22 q 319 3 378 -22 q 213 92 260 29 l 213 0 l 93 0 l 93 992 m 213 339 q 228 220 213 269 q 272 139 244 171 q 339 92 300 107 q 424 78 378 78 q 506 93 468 78 q 572 142 544 108 q 616 231 600 176 q 632 363 632 285 q 615 495 632 442 q 569 581 597 549 q 506 626 542 613 q 433 640 471 640 q 346 624 386 640 q 276 577 306 608 q 229 498 246 546 q 213 388 213 450 l 213 339 z "},"c":{"ha":776,"x_min":69,"x_max":715,"o":"m 715 243 q 621 49 697 119 q 406 -22 544 -22 q 260 4 324 -22 q 155 80 197 31 q 91 199 113 129 q 69 357 69 269 q 93 514 69 443 q 161 635 117 585 q 269 713 206 685 q 414 740 333 740 q 614 677 543 740 q 704 503 685 614 l 583 481 q 565 544 576 515 q 532 595 553 574 q 481 628 511 617 q 410 640 451 640 q 313 619 353 640 q 247 559 272 597 q 209 469 221 521 q 197 360 197 418 q 208 250 197 301 q 244 160 219 199 q 310 100 269 122 q 408 78 350 78 q 538 122 496 78 q 593 243 581 167 l 715 243 z "},"d":{"ha":828,"x_min":69,"x_max":733,"o":"m 615 103 q 513 10 571 43 q 375 -22 454 -22 q 238 7 296 -22 q 143 87 181 36 q 88 207 106 138 q 69 356 69 276 q 92 516 69 444 q 155 638 114 588 q 255 714 196 688 q 389 740 314 740 q 504 717 446 740 q 613 631 563 694 l 613 992 l 733 992 l 733 0 l 615 0 l 615 103 m 617 381 q 598 515 617 467 q 536 596 579 563 q 474 631 506 621 q 406 640 443 640 q 323 625 361 640 q 256 576 285 610 q 212 488 228 542 q 196 358 196 435 q 213 225 196 279 q 259 139 231 171 q 323 93 288 107 q 396 79 358 79 q 468 89 436 79 q 532 122 500 99 q 595 206 574 156 q 617 332 617 256 l 617 381 z "},"e":{"ha":792,"x_min":69,"x_max":725,"o":"m 714 201 q 622 38 696 97 q 408 -22 547 -22 q 157 77 244 -22 q 69 354 69 176 q 94 519 69 447 q 165 640 119 592 q 272 715 210 689 q 408 740 335 740 q 551 714 492 740 q 649 641 611 688 q 706 531 688 594 q 725 390 725 467 l 725 329 l 192 329 q 206 228 192 275 q 248 148 221 182 q 315 94 275 114 q 408 75 356 75 q 540 109 499 75 q 597 201 582 143 l 714 201 m 604 419 q 593 513 604 471 q 558 584 582 554 q 497 631 535 614 q 407 647 460 647 q 258 589 311 647 q 194 419 204 531 l 604 419 z "},"f":{"ha":464,"x_min":24,"x_max":476,"o":"m 136 622 l 24 622 l 24 718 l 136 718 l 136 781 q 153 881 136 839 q 201 949 171 922 q 270 990 231 976 q 354 1003 310 1003 q 415 999 386 1003 q 476 986 444 996 l 457 892 q 415 901 435 899 q 375 903 394 903 q 292 877 326 903 q 257 783 257 851 l 257 718 l 439 718 l 439 622 l 257 622 l 257 0 l 136 0 l 136 622 z "},"g":{"ha":826,"x_min":68,"x_max":733,"o":"m 215 -67 q 274 -160 231 -132 q 411 -187 318 -187 q 569 -124 525 -187 q 613 60 613 -61 l 613 136 q 512 46 571 78 q 374 14 453 14 q 238 42 296 14 q 143 120 181 71 q 87 235 106 169 q 68 375 68 300 q 90 524 68 457 q 154 640 113 592 q 255 714 196 688 q 388 740 314 740 q 506 716 447 740 q 614 626 565 692 l 614 718 l 733 718 l 733 117 q 720 -51 733 24 q 672 -177 707 -125 q 574 -257 636 -229 q 413 -285 511 -285 q 190 -234 271 -285 q 96 -67 110 -183 l 215 -67 m 615 386 q 599 505 615 457 q 553 583 582 553 q 485 627 524 614 q 406 640 447 640 q 323 626 361 640 q 256 579 285 611 q 212 497 228 547 q 196 376 196 447 q 213 254 196 304 q 258 174 231 204 q 323 129 286 143 q 397 115 360 115 q 484 131 444 115 q 553 176 524 146 q 599 253 582 207 q 615 363 615 300 l 615 386 z "},"h":{"ha":792,"x_min":93,"x_max":704,"o":"m 93 992 l 214 992 l 214 611 q 330 710 267 679 q 464 740 393 740 q 645 674 586 740 q 704 478 704 607 l 704 0 l 582 0 l 582 454 q 547 595 582 554 q 436 636 511 636 q 356 622 396 636 q 285 578 317 608 q 232 513 250 547 q 214 425 214 479 l 214 0 l 93 0 l 93 992 z "},"i":{"ha":313,"x_min":92,"x_max":221,"o":"m 96 718 l 217 718 l 217 0 l 96 0 l 96 718 m 92 992 l 221 992 l 221 851 l 92 851 l 92 992 z "},"j":{"ha":313,"x_min":-112,"x_max":221,"o":"m 92 992 l 221 992 l 221 851 l 92 851 l 92 992 m -92 -140 q -49 -151 -72 -147 q 3 -154 -26 -154 q 75 -126 54 -154 q 96 -40 96 -99 l 96 718 l 217 718 l 217 -8 q 208 -108 217 -62 q 178 -187 200 -154 q 119 -240 157 -221 q 22 -258 81 -258 q -53 -252 -21 -258 q -112 -236 -85 -246 l -92 -140 z "},"k":{"ha":726,"x_min":93,"x_max":722,"o":"m 93 992 l 213 992 l 213 414 l 549 718 l 694 718 l 438 478 l 722 0 l 585 0 l 347 407 l 213 286 l 213 0 l 93 0 l 93 992 z "},"l":{"ha":313,"x_min":96,"x_max":217,"o":"m 96 992 l 217 992 l 217 0 l 96 0 l 96 992 z "},"m":{"ha":1196,"x_min":93,"x_max":1107,"o":"m 93 718 l 213 718 l 213 608 q 319 708 261 675 q 439 740 378 740 q 569 706 519 740 q 642 606 618 671 q 753 706 690 672 q 886 740 815 740 q 1049 683 992 740 q 1107 497 1107 625 l 1107 0 l 986 0 l 986 469 q 978 551 986 518 q 953 602 969 583 q 914 628 938 621 q 860 636 890 636 q 793 625 828 636 q 725 586 758 614 q 679 529 697 563 q 661 453 661 496 l 661 0 l 540 0 l 540 468 q 508 599 540 563 q 414 636 475 636 q 281 578 343 636 q 235 521 257 556 q 214 428 214 486 l 214 0 l 93 0 l 93 718 z "},"n":{"ha":792,"x_min":93,"x_max":704,"o":"m 93 718 l 213 718 l 213 608 q 329 710 265 679 q 464 740 393 740 q 645 674 586 740 q 704 478 704 607 l 704 0 l 583 0 l 583 454 q 547 595 583 554 q 436 636 511 636 q 356 622 396 636 q 285 578 317 608 q 232 513 250 547 q 214 425 214 479 l 214 0 l 93 0 l 93 718 z "},"o":{"ha":835,"x_min":69,"x_max":765,"o":"m 415 -22 q 269 4 333 -22 q 161 79 206 31 q 93 199 117 128 q 69 357 69 269 q 94 515 69 444 q 165 636 119 586 q 276 713 211 686 q 419 740 340 740 q 564 714 500 740 q 673 638 628 688 q 742 519 718 589 q 765 363 765 450 q 741 203 765 274 q 672 82 717 132 q 561 5 626 32 q 415 -22 496 -22 m 417 78 q 517 99 475 78 q 585 157 558 119 q 625 247 613 194 q 638 361 638 299 q 625 474 638 422 q 585 562 613 525 q 517 619 558 599 q 417 640 475 640 q 317 619 358 640 q 249 562 276 599 q 210 474 222 525 q 197 360 197 422 q 210 246 197 297 q 249 157 222 194 q 317 99 275 119 q 417 78 358 78 z "},"p":{"ha":829,"x_min":93,"x_max":760,"o":"m 93 718 l 213 718 l 213 615 q 316 708 257 676 q 454 740 375 740 q 588 713 531 740 q 684 635 646 685 q 741 516 722 585 q 760 364 760 447 q 738 203 760 275 q 674 82 715 132 q 573 5 632 32 q 440 -22 514 -22 q 320 2 379 -22 q 214 89 261 26 l 214 -269 l 93 -269 l 93 718 m 213 339 q 228 220 213 269 q 272 139 244 171 q 339 92 300 107 q 424 78 378 78 q 506 93 468 78 q 572 142 544 108 q 616 231 600 176 q 632 363 632 285 q 615 495 632 442 q 569 581 597 549 q 506 626 542 613 q 433 640 471 640 q 346 624 386 640 q 276 577 306 608 q 229 498 246 546 q 213 388 213 450 l 213 339 z "},"q":{"ha":829,"x_min":69,"x_max":735,"o":"m 614 101 q 511 10 569 43 q 375 -22 453 -22 q 238 7 296 -22 q 143 87 181 36 q 88 207 106 138 q 69 356 69 276 q 92 516 69 444 q 155 638 114 588 q 255 714 196 688 q 389 740 314 740 q 506 717 447 740 q 615 626 565 693 l 615 718 l 735 718 l 735 -269 l 614 -269 l 614 101 m 617 381 q 598 515 617 467 q 538 596 579 563 q 474 631 506 621 q 406 640 443 640 q 323 625 361 640 q 256 576 285 610 q 212 488 228 542 q 196 358 196 435 q 213 225 196 279 q 259 139 231 171 q 324 93 288 107 q 397 79 360 79 q 469 89 438 79 q 532 122 500 99 q 594 206 572 156 q 617 332 617 256 l 617 381 z "},"r":{"ha":508,"x_min":93,"x_max":486,"o":"m 93 718 l 213 718 l 213 607 q 307 699 253 667 q 422 731 361 731 q 486 725 460 731 l 471 613 q 443 617 457 615 q 413 619 429 619 q 344 608 379 619 q 279 568 310 596 q 231 507 249 542 q 214 426 214 472 l 214 0 l 93 0 l 93 718 z "},"s":{"ha":725,"x_min":54,"x_max":664,"o":"m 171 210 q 234 105 183 135 q 372 75 285 75 q 502 106 464 75 q 540 189 540 138 q 535 228 540 210 q 517 262 531 247 q 478 288 503 276 q 413 306 453 299 l 321 319 q 214 344 260 329 q 136 384 168 360 q 88 444 104 408 q 72 529 72 479 q 94 618 72 579 q 153 684 115 657 q 244 726 192 711 q 357 740 296 740 q 487 725 435 740 q 572 683 539 710 q 624 621 606 657 q 651 544 642 585 l 542 526 q 519 578 532 556 q 486 615 507 600 q 435 637 465 629 q 361 644 406 644 q 278 635 311 644 q 224 611 244 626 q 196 577 204 596 q 188 538 188 558 q 193 498 188 515 q 214 467 199 481 q 256 444 229 454 q 324 428 282 435 l 428 411 q 609 339 554 390 q 664 189 664 288 q 646 105 664 143 q 592 38 628 67 q 501 -6 556 10 q 375 -22 447 -22 q 253 -10 310 -22 q 154 30 197 3 q 85 101 111 57 q 54 210 58 146 l 171 210 z "},"t":{"ha":482,"x_min":24,"x_max":468,"o":"m 135 622 l 24 622 l 24 718 l 135 718 l 135 914 l 256 914 l 256 718 l 446 718 l 446 622 l 256 622 l 256 201 q 279 117 256 149 q 351 85 303 85 q 405 89 382 85 q 447 100 428 93 l 468 7 q 408 -9 440 -3 q 331 -15 375 -15 q 232 3 269 -15 q 172 54 194 21 q 142 133 150 88 q 135 233 135 179 l 135 622 z "},"u":{"ha":779,"x_min":89,"x_max":686,"o":"m 89 718 l 210 718 l 210 265 q 242 124 210 165 q 349 82 275 82 q 494 140 429 82 q 547 205 529 171 q 565 293 565 239 l 565 718 l 686 718 l 686 0 l 567 0 l 567 111 q 453 10 514 42 q 321 -22 392 -22 q 144 44 199 -22 q 89 242 89 110 l 89 718 z "},"v":{"ha":724,"x_min":10,"x_max":715,"o":"m 10 718 l 150 718 l 364 135 l 582 718 l 715 718 l 426 0 l 297 0 l 10 718 z "},"w":{"ha":1018,"x_min":11,"x_max":1007,"o":"m 11 718 l 143 718 l 288 146 l 453 714 l 575 714 l 736 146 l 879 718 l 1007 718 l 797 0 l 669 0 l 508 572 l 346 0 l 219 0 l 11 718 z "},"x":{"ha":699,"x_min":15,"x_max":685,"o":"m 281 378 l 40 718 l 182 718 l 353 464 l 531 718 l 660 718 l 424 379 l 685 0 l 544 0 l 347 290 l 149 0 l 15 0 l 281 378 z "},"y":{"ha":726,"x_min":10,"x_max":717,"o":"m 90 -153 q 168 -167 129 -167 q 237 -144 213 -167 q 285 -58 261 -121 l 314 18 l 10 718 l 150 718 l 376 154 l 583 718 l 717 718 l 403 -68 q 364 -153 383 -117 q 321 -217 344 -190 q 265 -256 297 -243 q 185 -269 232 -269 q 125 -265 151 -269 q 67 -250 99 -261 l 90 -153 z "},"z":{"ha":649,"x_min":39,"x_max":628,"o":"m 39 90 l 457 621 l 47 621 l 47 718 l 607 718 l 607 628 l 189 97 l 628 97 l 613 0 l 39 0 l 39 90 z "},"{":{"ha":400,"x_min":38,"x_max":393,"o":"m 138 269 q 117 345 138 318 q 44 372 96 372 l 38 372 l 38 475 l 44 475 q 117 502 96 475 q 138 578 138 529 l 138 847 q 184 981 138 942 q 311 1019 231 1019 l 393 1019 l 393 918 l 328 918 q 254 846 254 918 l 254 550 q 235 468 254 501 q 174 424 217 435 q 235 379 217 413 q 254 297 254 346 l 254 1 q 328 -71 254 -71 l 393 -71 l 393 -172 l 311 -172 q 184 -133 231 -172 q 138 0 138 -94 l 138 269 z "},"|":{"ha":317,"x_min":99,"x_max":218,"o":"m 99 1019 l 218 1019 l 218 -172 l 99 -172 l 99 1019 z "},"}":{"ha":400,"x_min":7,"x_max":363,"o":"m 7 -71 l 72 -71 q 146 1 146 -71 l 146 297 q 165 379 146 346 q 226 424 183 413 q 165 468 183 435 q 146 550 146 501 l 146 846 q 72 918 146 918 l 7 918 l 7 1019 l 89 1019 q 216 981 169 1019 q 263 847 263 942 l 263 578 q 283 502 263 529 q 356 475 304 475 l 363 475 l 363 372 l 356 372 q 283 345 304 372 q 263 269 263 318 l 263 0 q 216 -133 263 -94 q 89 -172 169 -172 l 7 -172 l 7 -71 z "},"~":{"ha":822,"x_min":60,"x_max":760,"o":"m 60 347 q 75 465 60 418 q 117 540 90 511 q 179 579 143 568 q 258 590 215 590 q 347 567 307 590 q 423 517 388 544 q 491 468 458 490 q 558 446 524 446 q 631 476 608 446 q 654 576 654 506 l 760 576 q 745 459 760 506 q 704 384 731 413 q 642 344 678 356 q 564 332 607 332 q 475 355 515 332 q 399 406 435 378 q 331 456 364 433 q 264 479 297 479 q 190 449 213 479 q 168 347 168 418 l 60 347 z "}," ":{"ha":310,"x_min":0,"x_max":0,"o":""},"¡":{"ha":319,"x_min":93,"x_max":228,"o":"m 103 433 l 218 433 l 222 -269 l 99 -269 l 103 433 m 93 719 l 228 719 l 228 558 l 93 558 l 93 719 z "},"¢":{"ha":822,"x_min":96,"x_max":747,"o":"m 389 108 q 264 142 318 114 q 172 219 210 171 q 115 334 135 268 q 96 481 96 400 q 117 627 96 561 q 176 742 138 693 q 268 822 214 792 q 389 858 322 851 l 389 982 l 481 982 l 481 861 q 654 792 589 854 q 738 629 719 731 l 618 607 q 575 708 607 667 q 481 760 543 749 l 481 210 q 578 260 543 218 q 625 367 614 301 l 747 367 q 664 186 731 254 q 481 108 597 118 l 481 -12 l 389 -12 l 389 108 m 389 757 q 313 725 344 749 q 260 666 281 701 q 231 584 240 631 q 221 483 221 538 q 231 384 221 431 q 260 301 240 338 q 313 241 281 265 q 389 210 344 217 l 389 757 z "},"£":{"ha":822,"x_min":93,"x_max":769,"o":"m 122 99 q 187 212 169 150 q 204 344 204 274 q 201 383 204 364 q 196 431 199 403 l 93 431 l 93 531 l 183 531 q 173 601 178 564 q 168 685 168 639 q 192 818 168 761 q 256 913 215 875 q 349 968 296 950 q 463 986 403 986 q 588 968 538 986 q 669 919 638 950 q 719 849 701 889 q 746 763 736 808 l 639 742 q 615 804 628 778 q 583 849 603 831 q 536 875 564 867 q 467 883 508 883 q 328 828 371 883 q 285 689 285 774 q 290 603 285 640 q 300 531 294 567 l 613 531 l 613 431 l 314 431 q 317 392 317 408 q 318 358 318 375 q 306 231 318 296 q 250 108 294 165 l 769 108 l 751 0 l 121 0 l 122 99 z "},"¤":{"ha":822,"x_min":81,"x_max":742,"o":"m 161 269 q 117 363 133 310 q 101 478 101 415 q 118 597 101 543 q 163 692 135 650 l 82 778 l 157 851 l 240 761 q 411 813 311 813 q 581 761 513 813 l 665 851 l 740 778 l 657 690 q 699 598 685 650 q 714 483 714 546 q 699 367 714 421 q 657 272 685 314 l 742 185 l 665 113 l 581 200 q 501 164 544 176 q 407 151 457 151 q 315 163 357 151 q 239 197 274 175 l 157 113 l 81 185 l 161 269 m 408 247 q 499 265 461 247 q 560 313 536 282 q 594 388 583 344 q 604 481 604 431 q 594 575 604 532 q 560 649 583 618 q 499 699 536 681 q 408 717 461 717 q 319 699 356 717 q 258 649 282 681 q 224 575 235 618 q 213 481 213 532 q 224 388 213 431 q 258 313 235 344 q 319 265 282 282 q 408 247 356 247 z "},"¥":{"ha":822,"x_min":32,"x_max":790,"o":"m 101 311 l 353 311 l 353 414 l 335 444 l 101 444 l 101 538 l 278 538 l 32 960 l 165 960 l 414 511 l 667 960 l 790 960 l 547 538 l 728 538 l 728 444 l 489 444 l 474 414 l 474 311 l 728 311 l 728 218 l 474 218 l 474 0 l 353 0 l 353 218 l 101 218 l 101 311 z "},"¦":{"ha":317,"x_min":99,"x_max":218,"o":"m 99 1019 l 218 1019 l 218 542 l 99 542 l 99 1019 m 99 313 l 218 313 l 218 -172 l 99 -172 l 99 313 z "},"§":{"ha":732,"x_min":57,"x_max":675,"o":"m 175 76 q 237 -37 189 -6 q 378 -68 285 -68 q 463 -60 429 -68 q 515 -36 496 -51 q 543 0 535 -21 q 551 46 551 21 q 547 84 551 65 q 528 119 542 103 q 488 150 514 136 q 421 175 463 164 l 297 207 q 120 292 174 238 q 67 439 67 346 q 102 549 67 500 q 206 624 138 597 q 107 691 143 650 q 71 806 71 732 q 94 897 71 857 q 156 963 117 936 q 250 1003 196 990 q 368 1017 304 1017 q 503 999 449 1017 q 591 952 557 981 q 643 888 625 924 q 669 818 661 853 l 560 793 q 537 845 550 822 q 501 884 524 868 q 447 908 479 900 q 369 917 415 917 q 228 884 267 917 q 189 804 189 851 q 194 769 189 786 q 213 736 199 751 q 252 708 226 721 q 319 683 278 694 l 449 650 q 621 568 567 621 q 675 429 675 515 q 640 314 675 364 q 536 236 606 264 q 622 177 589 213 q 664 89 654 142 q 669 56 668 72 q 667 21 669 39 q 581 -122 658 -75 q 381 -168 504 -168 q 256 -156 313 -168 q 158 -114 200 -143 q 89 -38 115 -85 q 57 76 63 8 l 175 76 m 353 293 q 432 285 394 281 q 527 326 490 292 q 564 417 564 360 q 559 456 564 438 q 540 493 554 475 q 499 526 525 511 q 428 553 472 540 l 371 568 q 326 576 347 575 q 288 574 306 578 q 206 531 236 567 q 176 440 176 494 q 181 401 176 421 q 201 364 186 382 q 242 331 215 346 q 313 303 268 315 l 353 293 z "},"¨":{"ha":543,"x_min":89,"x_max":454,"o":"m 89 992 l 211 992 l 211 854 l 89 854 l 89 992 m 331 992 l 454 992 l 454 854 l 331 854 l 331 992 z "},"©":{"ha":1075,"x_min":63,"x_max":1010,"o":"m 538 0 q 344 35 432 0 q 194 135 257 71 q 97 292 132 200 q 63 496 63 383 q 99 700 63 608 q 201 856 136 792 q 352 956 265 921 q 538 992 439 992 q 730 956 643 992 q 879 856 817 921 q 976 700 942 792 q 1010 496 1010 608 q 973 292 1010 383 q 872 135 936 200 q 722 35 808 71 q 538 0 636 0 m 536 93 q 685 122 617 93 q 802 203 753 150 q 879 330 851 256 q 907 496 907 404 q 879 661 907 588 q 802 788 851 735 q 685 869 753 840 q 536 897 617 897 q 386 869 454 897 q 269 788 318 840 q 192 661 219 735 q 165 496 165 588 q 192 330 165 404 q 269 203 219 256 q 386 122 318 150 q 536 93 454 93 m 769 415 q 699 271 756 324 q 539 218 643 218 q 351 292 415 218 q 288 493 288 367 q 305 607 288 556 q 356 695 322 658 q 436 752 389 732 q 543 772 483 772 q 692 725 639 772 q 760 597 746 678 l 658 579 q 619 656 647 629 q 540 683 592 683 q 474 669 501 683 q 430 628 447 654 q 405 569 413 603 q 397 496 397 535 q 405 423 397 457 q 429 363 413 389 q 473 322 446 338 q 539 307 500 307 q 624 333 590 307 q 665 415 657 358 l 769 415 z "},"ª":{"ha":590,"x_min":56,"x_max":514,"o":"m 418 539 q 344 484 388 506 q 243 463 301 463 q 108 503 160 463 q 56 622 56 543 q 78 710 56 676 q 140 765 101 744 q 228 792 178 785 q 331 803 278 800 l 415 807 l 415 819 q 389 910 415 881 q 300 940 363 940 q 208 919 235 940 q 172 863 182 897 l 85 874 q 303 1017 114 1017 q 401 1003 361 1017 q 467 963 442 989 q 503 899 492 936 q 514 815 514 863 l 514 475 l 418 475 l 418 539 m 415 735 l 336 732 q 247 722 282 729 q 192 701 213 714 q 165 669 172 689 q 157 625 157 650 q 180 565 157 586 q 257 543 203 543 q 310 549 283 543 q 364 571 336 554 q 403 615 392 589 q 415 679 415 642 l 415 735 z "},"«":{"ha":690,"x_min":60,"x_max":650,"o":"m 60 357 l 250 665 l 372 665 l 197 358 l 372 46 l 247 46 l 60 357 m 338 357 l 528 665 l 650 665 l 475 358 l 650 46 l 525 46 l 338 357 z "},"¬":{"ha":822,"x_min":92,"x_max":708,"o":"m 92 600 l 708 600 l 708 229 l 599 229 l 599 493 l 92 493 l 92 600 z "},"­":{"ha":542,"x_min":67,"x_max":475,"o":"m 67 467 l 475 467 l 475 346 l 67 346 l 67 467 z "},"®":{"ha":671,"x_min":46,"x_max":624,"o":"m 224 865 l 331 865 q 393 858 369 865 q 430 838 417 850 q 448 810 443 826 q 453 778 453 794 q 442 728 453 747 q 406 699 432 710 l 467 579 l 394 579 l 342 685 l 289 685 l 289 579 l 224 579 l 224 865 m 339 740 q 382 751 375 740 q 389 778 389 763 q 379 801 389 790 q 331 811 369 811 l 289 811 l 289 740 l 339 740 m 335 417 q 217 438 271 417 q 126 497 164 458 q 67 592 88 536 q 46 717 46 647 q 68 842 46 786 q 130 936 90 897 q 222 996 169 975 q 335 1017 274 1017 q 453 996 400 1017 q 544 936 507 975 q 603 842 582 897 q 624 717 624 786 q 601 592 624 647 q 540 497 579 536 q 447 438 500 458 q 335 417 394 417 m 333 482 q 490 543 429 482 q 550 717 550 604 q 490 890 550 829 q 333 951 429 951 q 178 890 238 951 q 119 717 119 829 q 178 543 119 604 q 333 482 238 482 z "},"¯":{"ha":543,"x_min":90,"x_max":453,"o":"m 90 963 l 453 963 l 453 864 l 90 864 l 90 963 z "},"°":{"ha":465,"x_min":38,"x_max":428,"o":"m 38 797 q 52 874 38 839 q 93 935 67 908 q 156 976 119 961 q 233 990 192 990 q 311 976 275 990 q 373 935 347 961 q 413 874 399 908 q 428 797 428 839 q 413 720 428 756 q 373 658 399 685 q 311 617 347 632 q 233 603 275 603 q 156 617 192 603 q 93 658 119 632 q 52 720 67 685 q 38 797 38 756 m 233 690 q 306 719 278 690 q 335 797 335 747 q 306 874 335 844 q 233 904 278 904 q 159 874 188 904 q 131 797 131 844 q 159 719 131 747 q 233 690 188 690 z "},"±":{"ha":822,"x_min":89,"x_max":733,"o":"m 111 111 l 711 111 l 711 1 l 111 1 l 111 111 m 356 419 l 89 419 l 89 526 l 356 526 l 356 813 l 467 813 l 467 526 l 733 526 l 733 419 l 467 419 l 467 133 l 356 133 l 356 419 z "},"²":{"ha":572,"x_min":74,"x_max":489,"o":"m 85 488 q 144 536 107 507 q 228 604 182 565 q 294 661 267 638 q 339 707 321 685 q 365 752 357 729 q 374 807 374 775 q 351 868 374 844 q 288 892 329 892 q 213 869 240 892 q 172 796 186 847 l 74 811 q 97 874 82 843 q 135 928 111 904 q 197 967 160 953 q 289 982 235 982 q 374 969 338 982 q 434 933 410 956 q 470 879 458 910 q 482 814 482 849 q 474 750 482 779 q 449 692 467 721 q 401 634 431 664 q 329 568 372 604 q 288 534 310 551 q 240 497 265 517 l 489 497 l 474 407 l 85 407 l 85 488 z "},"³":{"ha":572,"x_min":74,"x_max":494,"o":"m 168 572 q 201 497 175 524 q 285 469 226 469 q 392 564 392 469 q 364 631 392 613 q 292 650 336 650 l 226 650 l 226 736 l 293 736 q 357 756 332 736 q 382 819 382 776 q 285 899 382 899 q 209 876 235 899 q 171 807 183 854 l 76 822 q 97 880 82 851 q 135 931 111 908 q 197 968 160 954 q 285 982 233 982 q 433 939 385 982 q 482 829 482 896 q 464 755 482 785 q 411 701 446 725 q 476 645 457 681 q 494 565 494 610 q 445 435 494 486 q 288 385 396 385 q 185 403 225 385 q 120 449 144 421 q 85 510 96 478 q 74 572 75 543 l 168 572 z "},"´":{"ha":543,"x_min":118,"x_max":425,"o":"m 276 1018 l 425 1018 l 238 821 l 118 821 l 276 1018 z "},"µ":{"ha":783,"x_min":93,"x_max":690,"o":"m 93 718 l 214 718 l 214 260 q 251 121 214 160 q 361 82 288 82 q 431 96 399 82 q 500 140 464 110 q 550 201 531 167 q 569 281 569 236 l 569 718 l 690 718 l 690 0 l 571 0 l 571 108 q 467 10 522 42 q 346 -21 411 -21 q 274 -12 307 -21 q 214 26 240 -3 l 214 -269 l 93 -269 l 93 718 z "},"¶":{"ha":846,"x_min":29,"x_max":747,"o":"m 340 411 q 194 439 253 414 q 98 503 135 464 q 45 594 61 543 q 29 700 29 644 q 49 813 29 760 q 113 906 68 867 q 231 969 157 946 q 417 992 306 992 l 747 992 l 747 -193 l 626 -193 l 626 889 l 461 889 l 461 -193 l 340 -193 l 340 411 z "},"·":{"ha":311,"x_min":86,"x_max":225,"o":"m 86 600 l 225 600 l 225 438 l 86 438 l 86 600 z "},"¸":{"ha":543,"x_min":142,"x_max":403,"o":"m 142 -206 q 187 -210 168 -208 q 225 -211 206 -211 q 285 -200 267 -211 q 303 -168 303 -189 q 283 -134 303 -144 q 207 -124 263 -124 l 178 -124 l 225 7 l 304 7 l 278 -67 q 339 -81 315 -71 q 377 -106 363 -92 q 397 -139 392 -121 q 403 -176 403 -157 q 356 -264 403 -239 q 226 -289 308 -289 q 186 -287 207 -289 q 142 -282 165 -286 l 142 -206 z "},"¹":{"ha":572,"x_min":93,"x_max":374,"o":"m 263 851 l 135 785 l 93 864 l 265 961 l 374 961 l 374 407 l 263 407 l 263 851 z "},"º":{"ha":594,"x_min":39,"x_max":556,"o":"m 296 457 q 108 532 178 457 q 39 736 39 607 q 58 852 39 800 q 111 941 76 904 q 193 997 146 978 q 299 1017 240 1017 q 486 942 417 1017 q 556 739 556 868 q 538 622 556 674 q 485 533 519 569 q 403 477 451 497 q 296 457 356 457 m 297 543 q 416 597 379 543 q 453 738 453 651 q 416 877 453 822 q 297 932 379 932 q 227 917 257 932 q 178 876 197 903 q 151 815 160 850 q 142 736 142 779 q 178 597 142 650 q 297 543 215 543 z "},"»":{"ha":690,"x_min":40,"x_max":631,"o":"m 215 353 l 40 665 l 165 665 l 353 354 l 163 46 l 40 46 l 215 353 m 493 353 l 318 665 l 443 665 l 631 354 l 440 46 l 318 46 l 493 353 z "},"¼":{"ha":1265,"x_min":44,"x_max":1193,"o":"m 422 0 l 304 0 l 792 960 l 910 960 l 422 0 m 214 851 l 86 785 l 44 864 l 217 961 l 325 961 l 325 407 l 214 407 l 214 851 m 751 199 l 1028 556 l 1124 556 l 1124 213 l 1193 213 l 1179 131 l 1124 131 l 1124 1 l 1024 1 l 1024 131 l 751 131 l 751 199 m 1024 213 l 1024 422 l 861 213 l 1024 213 z "},"½":{"ha":1265,"x_min":44,"x_max":1178,"o":"m 386 0 l 268 0 l 756 960 l 874 960 l 386 0 m 214 851 l 86 785 l 44 864 l 217 961 l 325 961 l 325 407 l 214 407 l 214 851 m 774 82 q 833 131 796 101 q 917 199 871 160 q 983 256 956 232 q 1028 301 1010 279 q 1054 347 1046 324 q 1063 401 1063 369 q 1040 463 1063 439 q 976 486 1018 486 q 902 464 929 486 q 861 390 875 442 l 763 406 q 785 468 771 438 q 824 523 800 499 q 886 562 849 547 q 978 576 924 576 q 1063 563 1026 576 q 1123 527 1099 550 q 1159 474 1147 504 q 1171 408 1171 443 q 1163 344 1171 374 q 1138 287 1156 315 q 1090 228 1119 258 q 1018 163 1061 199 q 976 128 999 146 q 929 92 954 111 l 1178 92 l 1163 1 l 774 1 l 774 82 z "},"¾":{"ha":1265,"x_min":74,"x_max":1193,"o":"m 486 0 l 368 0 l 856 960 l 974 960 l 486 0 m 751 199 l 1028 556 l 1124 556 l 1124 213 l 1193 213 l 1179 131 l 1124 131 l 1124 1 l 1024 1 l 1024 131 l 751 131 l 751 199 m 1024 213 l 1024 422 l 861 213 l 1024 213 m 168 572 q 201 497 175 524 q 285 469 226 469 q 392 564 392 469 q 364 631 392 613 q 292 650 336 650 l 226 650 l 226 736 l 293 736 q 357 756 332 736 q 382 819 382 776 q 285 899 382 899 q 209 876 235 899 q 171 807 183 854 l 76 822 q 97 880 82 851 q 135 931 111 908 q 197 968 160 954 q 285 982 233 982 q 433 939 385 982 q 482 829 482 896 q 464 755 482 785 q 411 701 446 725 q 476 645 457 681 q 494 565 494 610 q 445 435 494 486 q 288 385 396 385 q 185 403 225 385 q 120 449 144 421 q 85 510 96 478 q 74 572 75 543 l 168 572 z "},"¿":{"ha":688,"x_min":54,"x_max":663,"o":"m 663 -31 q 631 -126 653 -81 q 571 -208 608 -172 q 477 -265 533 -243 q 343 -286 421 -286 q 219 -267 272 -286 q 128 -215 165 -249 q 73 -134 92 -181 q 54 -32 54 -87 q 63 44 54 10 q 87 106 72 78 q 122 157 101 133 q 164 203 142 181 q 213 251 189 228 q 256 299 238 274 q 287 352 275 324 q 299 417 299 381 l 299 435 l 418 435 l 418 413 q 404 332 418 367 q 369 267 390 297 q 320 212 347 238 q 268 160 293 186 q 207 87 235 128 q 179 -17 179 46 q 219 -137 176 -92 q 344 -182 261 -182 q 481 -141 435 -182 q 551 -12 528 -100 l 663 -31 m 292 718 l 426 718 l 426 557 l 292 557 l 292 718 z "},"À":{"ha":936,"x_min":15,"x_max":921,"o":"m 401 992 l 536 992 l 921 0 l 782 0 l 678 276 l 253 276 l 149 0 l 15 0 l 401 992 m 639 388 l 464 847 l 292 388 l 639 388 m 410 1261 l 572 1074 l 451 1074 l 260 1261 l 410 1261 z "},"Á":{"ha":936,"x_min":15,"x_max":921,"o":"m 401 992 l 536 992 l 921 0 l 782 0 l 678 276 l 253 276 l 149 0 l 15 0 l 401 992 m 639 388 l 464 847 l 292 388 l 639 388 m 526 1261 l 676 1261 l 485 1074 l 364 1074 l 526 1261 z "},"Â":{"ha":936,"x_min":15,"x_max":921,"o":"m 401 992 l 536 992 l 921 0 l 782 0 l 678 276 l 253 276 l 149 0 l 15 0 l 401 992 m 639 388 l 464 847 l 292 388 l 639 388 m 407 1261 l 528 1261 l 688 1074 l 574 1074 l 467 1183 l 360 1074 l 246 1074 l 407 1261 z "},"Ã":{"ha":936,"x_min":15,"x_max":921,"o":"m 401 992 l 536 992 l 921 0 l 782 0 l 678 276 l 253 276 l 149 0 l 15 0 l 401 992 m 639 388 l 464 847 l 292 388 l 639 388 m 218 1082 q 257 1204 218 1163 q 364 1246 296 1246 q 424 1234 399 1246 q 472 1209 450 1222 q 515 1184 494 1196 q 561 1172 536 1172 q 611 1192 597 1172 q 625 1243 625 1211 l 717 1243 q 678 1120 717 1161 q 571 1079 639 1079 q 510 1091 536 1079 q 463 1116 485 1103 q 419 1141 440 1129 q 374 1153 399 1153 q 324 1133 338 1153 q 310 1082 310 1114 l 218 1082 z "},"Ä":{"ha":936,"x_min":15,"x_max":921,"o":"m 401 992 l 536 992 l 921 0 l 782 0 l 678 276 l 253 276 l 149 0 l 15 0 l 401 992 m 639 388 l 464 847 l 292 388 l 639 388 m 279 1239 l 406 1239 l 406 1097 l 279 1097 l 279 1239 m 528 1239 l 656 1239 l 656 1097 l 528 1097 l 528 1239 z "},"Å":{"ha":936,"x_min":15,"x_max":921,"o":"m 388 957 q 340 1005 358 974 q 322 1081 322 1036 q 365 1189 322 1153 q 467 1225 408 1225 q 522 1216 496 1225 q 569 1189 549 1207 q 601 1144 589 1171 q 613 1081 613 1117 q 594 1006 613 1036 q 549 958 576 976 l 921 0 l 782 0 l 678 276 l 253 276 l 149 0 l 15 0 l 388 957 m 639 388 l 464 847 l 292 388 l 639 388 m 467 1010 q 535 1081 535 1010 q 517 1138 535 1121 q 467 1156 499 1156 q 417 1138 435 1156 q 399 1081 399 1121 q 417 1027 399 1044 q 467 1010 435 1010 z "},"Æ":{"ha":1443,"x_min":7,"x_max":1396,"o":"m 611 992 l 1369 992 l 1369 879 l 888 879 l 888 568 l 1342 568 l 1342 454 l 888 454 l 888 113 l 1396 113 l 1375 0 l 765 0 l 765 329 l 347 329 l 153 0 l 7 0 l 611 992 m 765 439 l 765 879 l 674 879 l 411 439 l 765 439 z "},"Ç":{"ha":986,"x_min":75,"x_max":922,"o":"m 383 -221 q 431 -226 411 -225 q 471 -228 451 -228 q 532 -215 514 -228 q 550 -179 550 -203 q 530 -144 550 -156 q 451 -133 510 -133 l 422 -133 l 463 -22 q 301 25 372 -14 q 179 130 229 64 q 102 288 129 196 q 75 494 75 379 q 108 717 75 619 q 201 881 142 814 q 342 982 261 947 q 518 1017 424 1017 q 676 993 610 1017 q 790 926 743 969 q 865 824 836 883 q 908 692 893 764 l 783 671 q 751 769 771 725 q 699 843 731 813 q 624 890 668 874 q 518 906 581 906 q 387 876 444 906 q 290 792 329 846 q 229 663 250 739 q 208 496 208 588 q 229 328 208 404 q 290 199 250 253 q 387 115 329 144 q 519 86 444 86 q 635 103 588 86 q 715 153 683 121 q 764 229 746 185 q 790 326 782 274 l 922 326 q 887 191 914 253 q 813 83 860 129 q 699 8 765 36 q 543 -24 632 -19 l 524 -75 q 588 -90 563 -79 q 628 -117 613 -101 q 649 -150 643 -132 q 656 -189 656 -168 q 606 -280 656 -254 q 472 -306 557 -306 q 431 -304 451 -306 q 383 -299 410 -303 l 383 -221 z "},"È":{"ha":825,"x_min":110,"x_max":778,"o":"m 110 992 l 751 992 l 751 879 l 238 879 l 238 568 l 724 568 l 724 454 l 238 454 l 238 113 l 778 113 l 757 0 l 110 0 l 110 992 m 392 1261 l 554 1074 l 433 1074 l 242 1261 l 392 1261 z "},"É":{"ha":825,"x_min":110,"x_max":778,"o":"m 110 992 l 751 992 l 751 879 l 238 879 l 238 568 l 724 568 l 724 454 l 238 454 l 238 113 l 778 113 l 757 0 l 110 0 l 110 992 m 485 1261 l 635 1261 l 443 1074 l 322 1074 l 485 1261 z "},"Ê":{"ha":825,"x_min":110,"x_max":778,"o":"m 110 992 l 751 992 l 751 879 l 238 879 l 238 568 l 724 568 l 724 454 l 238 454 l 238 113 l 778 113 l 757 0 l 110 0 l 110 992 m 374 1261 l 494 1261 l 654 1074 l 540 1074 l 433 1183 l 326 1074 l 213 1074 l 374 1261 z "},"Ë":{"ha":825,"x_min":110,"x_max":778,"o":"m 110 992 l 751 992 l 751 879 l 238 879 l 238 568 l 724 568 l 724 454 l 238 454 l 238 113 l 778 113 l 757 0 l 110 0 l 110 992 m 246 1239 l 372 1239 l 372 1097 l 246 1097 l 246 1239 m 494 1239 l 622 1239 l 622 1097 l 494 1097 l 494 1239 z "},"Ì":{"ha":347,"x_min":-43,"x_max":269,"o":"m 110 992 l 238 992 l 238 0 l 110 0 l 110 992 m 107 1261 l 269 1074 l 149 1074 l -43 1261 l 107 1261 z "},"Í":{"ha":347,"x_min":81,"x_max":393,"o":"m 110 992 l 238 992 l 238 0 l 110 0 l 110 992 m 243 1261 l 393 1261 l 201 1074 l 81 1074 l 243 1261 z "},"Î":{"ha":347,"x_min":-47,"x_max":394,"o":"m 110 992 l 238 992 l 238 0 l 110 0 l 110 992 m 114 1261 l 235 1261 l 394 1074 l 281 1074 l 174 1183 l 67 1074 l -47 1074 l 114 1261 z "},"Ï":{"ha":347,"x_min":-14,"x_max":363,"o":"m 110 992 l 238 992 l 238 0 l 110 0 l 110 992 m -14 1239 l 113 1239 l 113 1097 l -14 1097 l -14 1239 m 235 1239 l 363 1239 l 363 1097 l 235 1097 l 235 1239 z "},"Ð":{"ha":1010,"x_min":14,"x_max":936,"o":"m 128 458 l 14 458 l 14 567 l 128 567 l 128 992 l 475 992 q 669 962 583 992 q 813 871 754 932 q 904 718 872 810 q 936 503 936 626 q 902 283 936 378 q 804 126 868 189 q 649 32 740 64 q 443 0 557 0 l 128 0 l 128 458 m 449 111 q 718 215 633 111 q 803 500 803 318 q 784 661 803 590 q 726 781 765 732 q 624 856 686 831 q 475 882 561 882 l 256 882 l 256 567 l 508 567 l 508 458 l 256 458 l 256 111 l 449 111 z "},"Ñ":{"ha":974,"x_min":110,"x_max":864,"o":"m 110 992 l 236 992 l 740 204 l 740 992 l 864 992 l 864 0 l 742 0 l 233 783 l 233 0 l 110 0 l 110 992 m 242 1082 q 281 1204 242 1163 q 388 1246 319 1246 q 448 1234 422 1246 q 496 1209 474 1222 q 539 1184 518 1196 q 585 1172 560 1172 q 635 1192 621 1172 q 649 1243 649 1211 l 740 1243 q 701 1120 740 1161 q 594 1079 663 1079 q 534 1091 560 1079 q 486 1116 508 1103 q 443 1141 464 1129 q 397 1153 422 1153 q 347 1133 361 1153 q 333 1082 333 1114 l 242 1082 z "},"Ò":{"ha":1063,"x_min":75,"x_max":988,"o":"m 532 -25 q 347 9 431 -25 q 202 109 263 43 q 108 272 142 175 q 75 494 75 369 q 109 717 75 619 q 203 881 143 814 q 348 982 264 947 q 532 1017 432 1017 q 717 983 633 1017 q 861 883 801 949 q 954 720 921 817 q 988 499 988 624 q 955 276 988 374 q 863 111 922 178 q 719 10 803 44 q 532 -25 635 -25 m 532 86 q 672 115 611 86 q 772 198 732 144 q 833 327 813 251 q 854 496 854 403 q 833 663 854 588 q 772 793 813 739 q 671 876 731 847 q 532 906 611 906 q 391 876 451 906 q 290 793 331 847 q 228 663 249 739 q 208 496 208 588 q 228 327 208 403 q 289 198 249 251 q 390 115 329 144 q 532 86 450 86 m 486 1261 l 649 1074 l 528 1074 l 336 1261 l 486 1261 z "},"Ó":{"ha":1063,"x_min":75,"x_max":988,"o":"m 532 -25 q 347 9 431 -25 q 202 109 263 43 q 108 272 142 175 q 75 494 75 369 q 109 717 75 619 q 203 881 143 814 q 348 982 264 947 q 532 1017 432 1017 q 717 983 633 1017 q 861 883 801 949 q 954 720 921 817 q 988 499 988 624 q 955 276 988 374 q 863 111 922 178 q 719 10 803 44 q 532 -25 635 -25 m 532 86 q 672 115 611 86 q 772 198 732 144 q 833 327 813 251 q 854 496 854 403 q 833 663 854 588 q 772 793 813 739 q 671 876 731 847 q 532 906 611 906 q 391 876 451 906 q 290 793 331 847 q 228 663 249 739 q 208 496 208 588 q 228 327 208 403 q 289 198 249 251 q 390 115 329 144 q 532 86 450 86 m 581 1261 l 731 1261 l 539 1074 l 418 1074 l 581 1261 z "},"Ô":{"ha":1063,"x_min":75,"x_max":988,"o":"m 532 -25 q 347 9 431 -25 q 202 109 263 43 q 108 272 142 175 q 75 494 75 369 q 109 717 75 619 q 203 881 143 814 q 348 982 264 947 q 532 1017 432 1017 q 717 983 633 1017 q 861 883 801 949 q 954 720 921 817 q 988 499 988 624 q 955 276 988 374 q 863 111 922 178 q 719 10 803 44 q 532 -25 635 -25 m 532 86 q 672 115 611 86 q 772 198 732 144 q 833 327 813 251 q 854 496 854 403 q 833 663 854 588 q 772 793 813 739 q 671 876 731 847 q 532 906 611 906 q 391 876 451 906 q 290 793 331 847 q 228 663 249 739 q 208 496 208 588 q 228 327 208 403 q 289 198 249 251 q 390 115 329 144 q 532 86 450 86 m 471 1261 l 592 1261 l 751 1074 l 638 1074 l 531 1183 l 424 1074 l 310 1074 l 471 1261 z "},"Õ":{"ha":1063,"x_min":75,"x_max":988,"o":"m 532 -25 q 347 9 431 -25 q 202 109 263 43 q 108 272 142 175 q 75 494 75 369 q 109 717 75 619 q 203 881 143 814 q 348 982 264 947 q 532 1017 432 1017 q 717 983 633 1017 q 861 883 801 949 q 954 720 921 817 q 988 499 988 624 q 955 276 988 374 q 863 111 922 178 q 719 10 803 44 q 532 -25 635 -25 m 532 86 q 672 115 611 86 q 772 198 732 144 q 833 327 813 251 q 854 496 854 403 q 833 663 854 588 q 772 793 813 739 q 671 876 731 847 q 532 906 611 906 q 391 876 451 906 q 290 793 331 847 q 228 663 249 739 q 208 496 208 588 q 228 327 208 403 q 289 198 249 251 q 390 115 329 144 q 532 86 450 86 m 282 1082 q 321 1204 282 1163 q 428 1246 360 1246 q 488 1234 463 1246 q 536 1209 514 1222 q 579 1184 558 1196 q 625 1172 600 1172 q 675 1192 661 1172 q 689 1243 689 1211 l 781 1243 q 742 1120 781 1161 q 635 1079 703 1079 q 574 1091 600 1079 q 526 1116 549 1103 q 483 1141 504 1129 q 438 1153 463 1153 q 388 1133 401 1153 q 374 1082 374 1114 l 282 1082 z "},"Ö":{"ha":1063,"x_min":75,"x_max":988,"o":"m 532 -25 q 347 9 431 -25 q 202 109 263 43 q 108 272 142 175 q 75 494 75 369 q 109 717 75 619 q 203 881 143 814 q 348 982 264 947 q 532 1017 432 1017 q 717 983 633 1017 q 861 883 801 949 q 954 720 921 817 q 988 499 988 624 q 955 276 988 374 q 863 111 922 178 q 719 10 803 44 q 532 -25 635 -25 m 532 86 q 672 115 611 86 q 772 198 732 144 q 833 327 813 251 q 854 496 854 403 q 833 663 854 588 q 772 793 813 739 q 671 876 731 847 q 532 906 611 906 q 391 876 451 906 q 290 793 331 847 q 228 663 249 739 q 208 496 208 588 q 228 327 208 403 q 289 198 249 251 q 390 115 329 144 q 532 86 450 86 m 343 1239 l 469 1239 l 469 1097 l 343 1097 l 343 1239 m 592 1239 l 719 1239 l 719 1097 l 592 1097 l 592 1239 z "},"×":{"ha":822,"x_min":113,"x_max":710,"o":"m 122 254 l 338 468 l 113 694 l 186 768 l 411 546 l 636 768 l 710 694 l 485 468 l 700 254 l 626 178 l 411 393 l 196 178 l 122 254 z "},"Ø":{"ha":1063,"x_min":75,"x_max":988,"o":"m 210 100 q 110 265 146 167 q 75 494 75 364 q 109 717 75 619 q 203 881 143 814 q 348 982 264 947 q 532 1017 432 1017 q 775 953 671 1017 l 849 1065 l 928 1010 l 851 893 q 952 728 917 826 q 988 499 988 629 q 955 276 988 374 q 863 111 922 178 q 719 10 803 44 q 532 -25 635 -25 q 286 39 393 -25 l 211 -74 l 132 -19 l 210 100 m 351 138 q 532 86 424 86 q 672 115 611 86 q 772 198 732 144 q 833 327 813 251 q 854 496 854 403 q 778 783 854 675 l 351 138 m 708 853 q 628 892 672 878 q 532 906 585 906 q 391 876 451 906 q 290 793 331 847 q 228 663 249 739 q 208 496 208 588 q 282 207 208 314 l 708 853 z "},"Ù":{"ha":947,"x_min":99,"x_max":849,"o":"m 99 992 l 226 992 l 226 393 q 284 163 226 239 q 475 86 342 86 q 665 163 610 86 q 721 393 721 240 l 721 992 l 849 992 l 849 393 q 823 203 849 282 q 749 74 797 125 q 631 -1 701 22 q 474 -25 561 -25 q 197 75 294 -25 q 99 399 99 175 l 99 992 m 421 1261 l 583 1074 l 463 1074 l 271 1261 l 421 1261 z "},"Ú":{"ha":947,"x_min":99,"x_max":849,"o":"m 99 992 l 226 992 l 226 393 q 284 163 226 239 q 475 86 342 86 q 665 163 610 86 q 721 393 721 240 l 721 992 l 849 992 l 849 393 q 823 203 849 282 q 749 74 797 125 q 631 -1 701 22 q 474 -25 561 -25 q 197 75 294 -25 q 99 399 99 175 l 99 992 m 533 1261 l 683 1261 l 492 1074 l 371 1074 l 533 1261 z "},"Û":{"ha":947,"x_min":99,"x_max":849,"o":"m 99 992 l 226 992 l 226 393 q 284 163 226 239 q 475 86 342 86 q 665 163 610 86 q 721 393 721 240 l 721 992 l 849 992 l 849 393 q 823 203 849 282 q 749 74 797 125 q 631 -1 701 22 q 474 -25 561 -25 q 197 75 294 -25 q 99 399 99 175 l 99 992 m 413 1261 l 533 1261 l 693 1074 l 579 1074 l 472 1183 l 365 1074 l 251 1074 l 413 1261 z "},"Ü":{"ha":947,"x_min":99,"x_max":849,"o":"m 99 992 l 226 992 l 226 393 q 284 163 226 239 q 475 86 342 86 q 665 163 610 86 q 721 393 721 240 l 721 992 l 849 992 l 849 393 q 823 203 849 282 q 749 74 797 125 q 631 -1 701 22 q 474 -25 561 -25 q 197 75 294 -25 q 99 399 99 175 l 99 992 m 285 1239 l 411 1239 l 411 1097 l 285 1097 l 285 1239 m 533 1239 l 661 1239 l 661 1097 l 533 1097 l 533 1239 z "},"Ý":{"ha":851,"x_min":18,"x_max":832,"o":"m 364 421 l 18 992 l 165 992 l 428 533 l 697 992 l 832 992 l 493 421 l 493 0 l 364 0 l 364 421 m 486 1261 l 636 1261 l 444 1074 l 324 1074 l 486 1261 z "},"Þ":{"ha":869,"x_min":110,"x_max":808,"o":"m 110 992 l 236 992 l 236 807 l 442 807 q 623 783 551 807 q 735 719 694 760 q 792 624 776 678 q 808 513 808 571 q 792 392 808 449 q 733 292 775 335 q 621 225 692 250 q 442 200 550 200 l 236 200 l 236 0 l 110 0 l 110 992 m 440 308 q 560 322 513 308 q 633 362 607 336 q 670 425 660 388 q 681 508 681 463 q 669 591 681 556 q 631 651 658 626 q 556 687 603 675 q 439 699 510 699 l 236 699 l 236 308 l 440 308 z "},"ß":{"ha":800,"x_min":94,"x_max":749,"o":"m 94 717 q 172 927 94 851 q 383 1003 250 1003 q 597 939 526 1003 q 668 764 668 875 q 637 632 668 685 q 539 547 606 579 q 620 516 582 538 q 687 461 658 494 q 732 381 715 428 q 749 276 749 335 q 733 164 749 217 q 681 72 717 111 q 588 8 646 32 q 449 -15 531 -15 q 367 -8 407 -15 q 299 8 326 -1 l 319 103 q 372 90 339 96 q 439 83 406 83 q 531 97 494 83 q 588 138 567 111 q 619 200 610 164 q 628 281 628 236 q 564 431 628 385 q 390 478 500 478 l 322 478 l 322 576 l 379 576 q 549 754 549 576 q 540 814 549 786 q 511 863 531 842 q 462 895 492 883 q 389 907 432 907 q 257 858 301 907 q 213 714 213 808 l 213 0 l 94 0 l 94 717 z "},"à":{"ha":747,"x_min":47,"x_max":657,"o":"m 540 99 q 442 17 501 51 q 293 -17 382 -17 q 194 -3 239 -17 q 116 37 149 10 q 65 104 83 64 q 47 199 47 144 q 78 318 47 272 q 162 390 110 364 q 279 428 214 417 q 414 442 344 439 l 538 446 l 538 474 q 499 606 538 565 q 372 646 460 646 q 246 617 286 646 q 193 539 206 589 l 83 551 q 176 695 103 650 q 376 740 250 740 q 508 722 454 740 q 594 668 561 703 q 642 582 628 633 q 657 467 657 531 l 657 0 l 540 0 l 540 99 m 538 360 l 422 356 q 300 342 349 353 q 223 312 251 331 q 183 265 194 293 q 171 201 171 238 q 203 115 171 147 q 311 82 236 82 q 478 135 418 82 q 538 279 538 188 l 538 360 m 189 1018 l 338 1018 l 496 821 l 376 821 l 189 1018 z "},"á":{"ha":747,"x_min":47,"x_max":657,"o":"m 540 99 q 442 17 501 51 q 293 -17 382 -17 q 194 -3 239 -17 q 116 37 149 10 q 65 104 83 64 q 47 199 47 144 q 78 318 47 272 q 162 390 110 364 q 279 428 214 417 q 414 442 344 439 l 538 446 l 538 474 q 499 606 538 565 q 372 646 460 646 q 246 617 286 646 q 193 539 206 589 l 83 551 q 176 695 103 650 q 376 740 250 740 q 508 722 454 740 q 594 668 561 703 q 642 582 628 633 q 657 467 657 531 l 657 0 l 540 0 l 540 99 m 538 360 l 422 356 q 300 342 349 353 q 223 312 251 331 q 183 265 194 293 q 171 201 171 238 q 203 115 171 147 q 311 82 236 82 q 478 135 418 82 q 538 279 538 188 l 538 360 m 431 1018 l 579 1018 l 392 821 l 272 821 l 431 1018 z "},"â":{"ha":747,"x_min":47,"x_max":657,"o":"m 540 99 q 442 17 501 51 q 293 -17 382 -17 q 194 -3 239 -17 q 116 37 149 10 q 65 104 83 64 q 47 199 47 144 q 78 318 47 272 q 162 390 110 364 q 279 428 214 417 q 414 442 344 439 l 538 446 l 538 474 q 499 606 538 565 q 372 646 460 646 q 246 617 286 646 q 193 539 206 589 l 83 551 q 176 695 103 650 q 376 740 250 740 q 508 722 454 740 q 594 668 561 703 q 642 582 628 633 q 657 467 657 531 l 657 0 l 540 0 l 540 99 m 538 360 l 422 356 q 300 342 349 353 q 223 312 251 331 q 183 265 194 293 q 171 201 171 238 q 203 115 171 147 q 311 82 236 82 q 478 135 418 82 q 538 279 538 188 l 538 360 m 313 1018 l 433 1018 l 593 821 l 481 821 l 372 943 l 264 821 l 153 821 l 313 1018 z "},"ã":{"ha":747,"x_min":47,"x_max":657,"o":"m 540 99 q 442 17 501 51 q 293 -17 382 -17 q 194 -3 239 -17 q 116 37 149 10 q 65 104 83 64 q 47 199 47 144 q 78 318 47 272 q 162 390 110 364 q 279 428 214 417 q 414 442 344 439 l 538 446 l 538 474 q 499 606 538 565 q 372 646 460 646 q 246 617 286 646 q 193 539 206 589 l 83 551 q 176 695 103 650 q 376 740 250 740 q 508 722 454 740 q 594 668 561 703 q 642 582 628 633 q 657 467 657 531 l 657 0 l 540 0 l 540 99 m 538 360 l 422 356 q 300 342 349 353 q 223 312 251 331 q 183 265 194 293 q 171 201 171 238 q 203 115 171 147 q 311 82 236 82 q 478 135 418 82 q 538 279 538 188 l 538 360 m 125 840 q 163 962 125 921 q 267 1003 200 1003 q 326 992 300 1003 q 374 967 351 981 q 417 942 396 953 q 463 931 439 931 q 510 949 496 931 q 524 999 524 967 l 613 999 q 575 877 613 918 q 471 836 538 836 q 412 848 438 836 q 364 873 386 860 q 321 898 342 886 q 276 910 300 910 q 228 891 242 910 q 214 840 214 872 l 125 840 z "},"ä":{"ha":747,"x_min":47,"x_max":657,"o":"m 540 99 q 442 17 501 51 q 293 -17 382 -17 q 194 -3 239 -17 q 116 37 149 10 q 65 104 83 64 q 47 199 47 144 q 78 318 47 272 q 162 390 110 364 q 279 428 214 417 q 414 442 344 439 l 538 446 l 538 474 q 499 606 538 565 q 372 646 460 646 q 246 617 286 646 q 193 539 206 589 l 83 551 q 176 695 103 650 q 376 740 250 740 q 508 722 454 740 q 594 668 561 703 q 642 582 628 633 q 657 467 657 531 l 657 0 l 540 0 l 540 99 m 538 360 l 422 356 q 300 342 349 353 q 223 312 251 331 q 183 265 194 293 q 171 201 171 238 q 203 115 171 147 q 311 82 236 82 q 478 135 418 82 q 538 279 538 188 l 538 360 m 188 992 l 310 992 l 310 854 l 188 854 l 188 992 m 429 992 l 553 992 l 553 854 l 429 854 l 429 992 z "},"å":{"ha":747,"x_min":47,"x_max":657,"o":"m 540 99 q 442 17 501 51 q 293 -17 382 -17 q 194 -3 239 -17 q 116 37 149 10 q 65 104 83 64 q 47 199 47 144 q 78 318 47 272 q 162 390 110 364 q 279 428 214 417 q 414 442 344 439 l 538 446 l 538 474 q 499 606 538 565 q 372 646 460 646 q 246 617 286 646 q 193 539 206 589 l 83 551 q 176 695 103 650 q 376 740 250 740 q 508 722 454 740 q 594 668 561 703 q 642 582 628 633 q 657 467 657 531 l 657 0 l 540 0 l 540 99 m 538 360 l 422 356 q 300 342 349 353 q 223 312 251 331 q 183 265 194 293 q 171 201 171 238 q 203 115 171 147 q 311 82 236 82 q 478 135 418 82 q 538 279 538 188 l 538 360 m 231 957 q 272 1063 231 1026 q 371 1099 314 1099 q 424 1090 399 1099 q 470 1063 450 1081 q 502 1018 490 1044 q 514 957 514 992 q 502 896 514 922 q 470 852 490 869 q 424 826 450 835 q 371 818 399 818 q 272 853 314 818 q 231 957 231 888 m 371 886 q 420 903 403 886 q 438 957 438 921 q 420 1012 438 994 q 371 1029 403 1029 q 323 1012 340 1029 q 306 957 306 994 q 323 903 306 921 q 371 886 340 886 z "},"æ":{"ha":1239,"x_min":47,"x_max":1172,"o":"m 83 551 q 166 687 103 642 q 338 738 229 732 q 386 740 363 740 q 432 736 410 739 q 611 613 563 718 q 722 710 658 679 q 860 740 785 740 q 1001 714 942 740 q 1098 641 1060 688 q 1154 531 1136 594 q 1172 390 1172 467 l 1172 329 l 647 329 q 663 228 649 275 q 703 148 676 182 q 769 94 731 114 q 861 75 808 75 q 988 109 947 75 q 1044 201 1029 143 l 1161 201 q 1069 38 1143 97 q 860 -22 996 -22 q 690 20 760 -22 q 585 135 619 63 q 544 81 568 108 q 485 33 519 54 q 406 -3 451 11 q 301 -17 360 -17 q 118 37 189 -17 q 47 199 47 90 q 78 318 47 272 q 159 390 108 364 q 274 428 210 417 q 406 442 339 439 l 529 446 l 529 467 q 493 603 529 561 q 368 646 457 646 q 245 617 285 646 q 193 539 206 589 l 83 551 m 529 360 l 414 356 q 295 342 342 353 q 221 312 249 331 q 182 265 193 293 q 171 201 171 238 q 194 125 171 156 q 269 86 218 94 q 322 82 292 82 q 476 138 424 85 q 529 279 529 192 l 529 360 m 1053 419 q 1042 513 1053 471 q 1007 584 1031 554 q 947 631 983 614 q 858 647 910 647 q 714 589 767 647 q 650 419 661 531 l 1053 419 z "},"ç":{"ha":776,"x_min":69,"x_max":715,"o":"m 261 -206 q 306 -210 288 -208 q 344 -211 325 -211 q 404 -200 386 -211 q 422 -168 422 -189 q 402 -134 422 -144 q 326 -124 382 -124 l 297 -124 l 336 -17 q 137 103 204 4 q 69 357 69 201 q 93 514 69 443 q 161 635 117 585 q 269 713 206 685 q 414 740 333 740 q 614 677 543 740 q 704 503 685 614 l 583 481 q 565 544 576 515 q 532 595 553 574 q 481 628 511 617 q 410 640 451 640 q 313 619 353 640 q 247 559 272 597 q 209 469 221 521 q 197 360 197 418 q 208 250 197 301 q 244 160 219 199 q 310 100 269 122 q 408 78 350 78 q 538 122 496 78 q 593 243 581 167 l 715 243 q 623 51 697 121 q 413 -22 549 -19 l 397 -67 q 458 -81 435 -71 q 497 -106 482 -92 q 517 -139 511 -121 q 522 -176 522 -157 q 475 -264 522 -239 q 346 -289 428 -289 q 306 -287 326 -289 q 261 -282 285 -286 l 261 -206 z "},"è":{"ha":792,"x_min":69,"x_max":725,"o":"m 714 201 q 622 38 696 97 q 408 -22 547 -22 q 157 77 244 -22 q 69 354 69 176 q 94 519 69 447 q 165 640 119 592 q 272 715 210 689 q 408 740 335 740 q 551 714 492 740 q 649 641 611 688 q 706 531 688 594 q 725 390 725 467 l 725 329 l 192 329 q 206 228 192 275 q 248 148 221 182 q 315 94 275 114 q 408 75 356 75 q 540 109 499 75 q 597 201 582 143 l 714 201 m 604 419 q 593 513 604 471 q 558 584 582 554 q 497 631 535 614 q 407 647 460 647 q 258 589 311 647 q 194 419 204 531 l 604 419 m 211 1018 l 360 1018 l 518 821 l 399 821 l 211 1018 z "},"é":{"ha":792,"x_min":69,"x_max":725,"o":"m 714 201 q 622 38 696 97 q 408 -22 547 -22 q 157 77 244 -22 q 69 354 69 176 q 94 519 69 447 q 165 640 119 592 q 272 715 210 689 q 408 740 335 740 q 551 714 492 740 q 649 641 611 688 q 706 531 688 594 q 725 390 725 467 l 725 329 l 192 329 q 206 228 192 275 q 248 148 221 182 q 315 94 275 114 q 408 75 356 75 q 540 109 499 75 q 597 201 582 143 l 714 201 m 604 419 q 593 513 604 471 q 558 584 582 554 q 497 631 535 614 q 407 647 460 647 q 258 589 311 647 q 194 419 204 531 l 604 419 m 469 1018 l 618 1018 l 431 821 l 311 821 l 469 1018 z "},"ê":{"ha":792,"x_min":69,"x_max":725,"o":"m 714 201 q 622 38 696 97 q 408 -22 547 -22 q 157 77 244 -22 q 69 354 69 176 q 94 519 69 447 q 165 640 119 592 q 272 715 210 689 q 408 740 335 740 q 551 714 492 740 q 649 641 611 688 q 706 531 688 594 q 725 390 725 467 l 725 329 l 192 329 q 206 228 192 275 q 248 148 221 182 q 315 94 275 114 q 408 75 356 75 q 540 109 499 75 q 597 201 582 143 l 714 201 m 604 419 q 593 513 604 471 q 558 584 582 554 q 497 631 535 614 q 407 647 460 647 q 258 589 311 647 q 194 419 204 531 l 604 419 m 344 1018 l 465 1018 l 625 821 l 513 821 l 404 943 l 296 821 l 185 821 l 344 1018 z "},"ë":{"ha":792,"x_min":69,"x_max":725,"o":"m 714 201 q 622 38 696 97 q 408 -22 547 -22 q 157 77 244 -22 q 69 354 69 176 q 94 519 69 447 q 165 640 119 592 q 272 715 210 689 q 408 740 335 740 q 551 714 492 740 q 649 641 611 688 q 706 531 688 594 q 725 390 725 467 l 725 329 l 192 329 q 206 228 192 275 q 248 148 221 182 q 315 94 275 114 q 408 75 356 75 q 540 109 499 75 q 597 201 582 143 l 714 201 m 604 419 q 593 513 604 471 q 558 584 582 554 q 497 631 535 614 q 407 647 460 647 q 258 589 311 647 q 194 419 204 531 l 604 419 m 222 992 l 344 992 l 344 854 l 222 854 l 222 992 m 464 992 l 588 992 l 588 854 l 464 854 l 464 992 z "},"ì":{"ha":313,"x_min":-71,"x_max":236,"o":"m 96 718 l 217 718 l 217 0 l 96 0 l 96 718 m -71 1018 l 78 1018 l 236 821 l 117 821 l -71 1018 z "},"í":{"ha":313,"x_min":83,"x_max":390,"o":"m 96 718 l 217 718 l 217 0 l 96 0 l 96 718 m 242 1018 l 390 1018 l 203 821 l 83 821 l 242 1018 z "},"î":{"ha":313,"x_min":-62,"x_max":378,"o":"m 96 718 l 217 718 l 217 0 l 96 0 l 96 718 m 97 1018 l 218 1018 l 378 821 l 265 821 l 157 943 l 49 821 l -62 821 l 97 1018 z "},"ï":{"ha":313,"x_min":-25,"x_max":340,"o":"m 96 718 l 217 718 l 217 0 l 96 0 l 96 718 m -25 992 l 97 992 l 97 854 l -25 854 l -25 992 m 217 992 l 340 992 l 340 854 l 217 854 l 217 992 z "},"ð":{"ha":835,"x_min":69,"x_max":765,"o":"m 265 810 l 343 889 q 267 907 307 900 q 183 917 228 914 l 201 1014 q 319 997 264 1007 q 422 967 374 986 l 511 1054 l 567 996 l 501 931 q 765 385 765 783 q 740 212 765 288 q 669 84 715 136 q 559 5 624 32 q 415 -22 494 -22 q 271 3 335 -22 q 162 75 207 29 q 93 185 117 121 q 69 328 69 250 q 94 471 69 406 q 164 583 119 536 q 269 656 208 629 q 401 682 331 682 q 530 659 478 682 q 625 590 582 636 q 428 858 588 779 l 321 753 l 265 810 m 638 350 q 586 511 638 453 q 512 566 554 550 q 410 582 469 582 q 317 562 357 582 q 250 508 276 542 q 210 428 224 474 q 197 331 197 382 q 210 233 197 278 q 251 153 224 188 q 319 99 278 118 q 417 79 360 79 q 514 99 472 79 q 583 152 556 118 q 624 232 611 186 q 638 331 638 278 l 638 350 z "},"ñ":{"ha":792,"x_min":93,"x_max":704,"o":"m 93 718 l 213 718 l 213 608 q 329 710 265 679 q 464 740 393 740 q 645 674 586 740 q 704 478 704 607 l 704 0 l 583 0 l 583 454 q 547 595 583 554 q 436 636 511 636 q 356 622 396 636 q 285 578 317 608 q 232 513 250 547 q 214 425 214 479 l 214 0 l 93 0 l 93 718 m 160 840 q 197 962 160 921 q 301 1003 235 1003 q 360 992 335 1003 q 408 967 386 981 q 452 942 431 953 q 497 931 474 931 q 544 949 531 931 q 558 999 558 967 l 647 999 q 610 877 647 918 q 506 836 572 836 q 447 848 472 836 q 399 873 421 860 q 356 898 376 886 q 311 910 335 910 q 263 891 276 910 q 249 840 249 872 l 160 840 z "},"ò":{"ha":835,"x_min":69,"x_max":765,"o":"m 415 -22 q 269 4 333 -22 q 161 79 206 31 q 93 199 117 128 q 69 357 69 269 q 94 515 69 444 q 165 636 119 586 q 276 713 211 686 q 419 740 340 740 q 564 714 500 740 q 673 638 628 688 q 742 519 718 589 q 765 363 765 450 q 741 203 765 274 q 672 82 717 132 q 561 5 626 32 q 415 -22 496 -22 m 417 78 q 517 99 475 78 q 585 157 558 119 q 625 247 613 194 q 638 361 638 299 q 625 474 638 422 q 585 562 613 525 q 517 619 558 599 q 417 640 475 640 q 317 619 358 640 q 249 562 276 599 q 210 474 222 525 q 197 360 197 422 q 210 246 197 297 q 249 157 222 194 q 317 99 275 119 q 417 78 358 78 m 226 1018 l 375 1018 l 533 821 l 414 821 l 226 1018 z "},"ó":{"ha":835,"x_min":69,"x_max":765,"o":"m 415 -22 q 269 4 333 -22 q 161 79 206 31 q 93 199 117 128 q 69 357 69 269 q 94 515 69 444 q 165 636 119 586 q 276 713 211 686 q 419 740 340 740 q 564 714 500 740 q 673 638 628 688 q 742 519 718 589 q 765 363 765 450 q 741 203 765 274 q 672 82 717 132 q 561 5 626 32 q 415 -22 496 -22 m 417 78 q 517 99 475 78 q 585 157 558 119 q 625 247 613 194 q 638 361 638 299 q 625 474 638 422 q 585 562 613 525 q 517 619 558 599 q 417 640 475 640 q 317 619 358 640 q 249 562 276 599 q 210 474 222 525 q 197 360 197 422 q 210 246 197 297 q 249 157 222 194 q 317 99 275 119 q 417 78 358 78 m 476 1018 l 625 1018 l 438 821 l 318 821 l 476 1018 z "},"ô":{"ha":835,"x_min":69,"x_max":765,"o":"m 415 -22 q 269 4 333 -22 q 161 79 206 31 q 93 199 117 128 q 69 357 69 269 q 94 515 69 444 q 165 636 119 586 q 276 713 211 686 q 419 740 340 740 q 564 714 500 740 q 673 638 628 688 q 742 519 718 589 q 765 363 765 450 q 741 203 765 274 q 672 82 717 132 q 561 5 626 32 q 415 -22 496 -22 m 417 78 q 517 99 475 78 q 585 157 558 119 q 625 247 613 194 q 638 361 638 299 q 625 474 638 422 q 585 562 613 525 q 517 619 558 599 q 417 640 475 640 q 317 619 358 640 q 249 562 276 599 q 210 474 222 525 q 197 360 197 422 q 210 246 197 297 q 249 157 222 194 q 317 99 275 119 q 417 78 358 78 m 357 1018 l 478 1018 l 638 821 l 525 821 l 417 943 l 308 821 l 197 821 l 357 1018 z "},"õ":{"ha":835,"x_min":69,"x_max":765,"o":"m 415 -22 q 269 4 333 -22 q 161 79 206 31 q 93 199 117 128 q 69 357 69 269 q 94 515 69 444 q 165 636 119 586 q 276 713 211 686 q 419 740 340 740 q 564 714 500 740 q 673 638 628 688 q 742 519 718 589 q 765 363 765 450 q 741 203 765 274 q 672 82 717 132 q 561 5 626 32 q 415 -22 496 -22 m 417 78 q 517 99 475 78 q 585 157 558 119 q 625 247 613 194 q 638 361 638 299 q 625 474 638 422 q 585 562 613 525 q 517 619 558 599 q 417 640 475 640 q 317 619 358 640 q 249 562 276 599 q 210 474 222 525 q 197 360 197 422 q 210 246 197 297 q 249 157 222 194 q 317 99 275 119 q 417 78 358 78 m 174 840 q 211 962 174 921 q 315 1003 249 1003 q 374 992 349 1003 q 422 967 400 981 q 466 942 444 953 q 511 931 488 931 q 558 949 544 931 q 572 999 572 967 l 661 999 q 624 877 661 918 q 519 836 586 836 q 460 848 486 836 q 413 873 435 860 q 369 898 390 886 q 325 910 349 910 q 276 891 290 910 q 263 840 263 872 l 174 840 z "},"ö":{"ha":835,"x_min":69,"x_max":765,"o":"m 415 -22 q 269 4 333 -22 q 161 79 206 31 q 93 199 117 128 q 69 357 69 269 q 94 515 69 444 q 165 636 119 586 q 276 713 211 686 q 419 740 340 740 q 564 714 500 740 q 673 638 628 688 q 742 519 718 589 q 765 363 765 450 q 741 203 765 274 q 672 82 717 132 q 561 5 626 32 q 415 -22 496 -22 m 417 78 q 517 99 475 78 q 585 157 558 119 q 625 247 613 194 q 638 361 638 299 q 625 474 638 422 q 585 562 613 525 q 517 619 558 599 q 417 640 475 640 q 317 619 358 640 q 249 562 276 599 q 210 474 222 525 q 197 360 197 422 q 210 246 197 297 q 249 157 222 194 q 317 99 275 119 q 417 78 358 78 m 235 992 l 357 992 l 357 854 l 235 854 l 235 992 m 476 992 l 600 992 l 600 854 l 476 854 l 476 992 z "},"÷":{"ha":822,"x_min":111,"x_max":711,"o":"m 347 797 l 476 797 l 476 649 l 347 649 l 347 797 m 347 297 l 476 297 l 476 149 l 347 149 l 347 297 m 111 528 l 711 528 l 711 418 l 111 418 l 111 528 z "},"ø":{"ha":835,"x_min":69,"x_max":765,"o":"m 169 69 q 69 357 69 169 q 94 515 69 444 q 165 636 119 586 q 276 713 211 686 q 419 740 340 740 q 593 700 519 740 l 654 790 l 728 739 l 665 646 q 740 525 714 596 q 765 363 765 454 q 741 203 765 274 q 672 82 717 132 q 561 5 626 32 q 415 -22 496 -22 q 322 -12 365 -22 q 243 15 279 -3 l 178 -81 l 104 -28 l 169 69 m 533 610 q 481 633 510 625 q 417 640 453 640 q 317 619 358 640 q 249 562 276 599 q 210 474 222 525 q 197 360 197 422 q 207 256 197 303 q 239 172 217 208 l 533 610 m 303 106 q 417 78 350 78 q 517 99 475 78 q 585 157 558 119 q 625 247 613 194 q 638 361 638 299 q 628 462 638 415 q 597 544 618 508 l 303 106 z "},"ù":{"ha":779,"x_min":89,"x_max":686,"o":"m 89 718 l 210 718 l 210 265 q 242 124 210 165 q 349 82 275 82 q 494 140 429 82 q 547 205 529 171 q 565 293 565 239 l 565 718 l 686 718 l 686 0 l 567 0 l 567 111 q 453 10 514 42 q 321 -22 392 -22 q 144 44 199 -22 q 89 242 89 110 l 89 718 m 186 1018 l 335 1018 l 493 821 l 374 821 l 186 1018 z "},"ú":{"ha":779,"x_min":89,"x_max":686,"o":"m 89 718 l 210 718 l 210 265 q 242 124 210 165 q 349 82 275 82 q 494 140 429 82 q 547 205 529 171 q 565 293 565 239 l 565 718 l 686 718 l 686 0 l 567 0 l 567 111 q 453 10 514 42 q 321 -22 392 -22 q 144 44 199 -22 q 89 242 89 110 l 89 718 m 450 1018 l 599 1018 l 411 821 l 292 821 l 450 1018 z "},"û":{"ha":779,"x_min":89,"x_max":686,"o":"m 89 718 l 210 718 l 210 265 q 242 124 210 165 q 349 82 275 82 q 494 140 429 82 q 547 205 529 171 q 565 293 565 239 l 565 718 l 686 718 l 686 0 l 567 0 l 567 111 q 453 10 514 42 q 321 -22 392 -22 q 144 44 199 -22 q 89 242 89 110 l 89 718 m 329 1018 l 450 1018 l 610 821 l 497 821 l 389 943 l 281 821 l 169 821 l 329 1018 z "},"ü":{"ha":779,"x_min":89,"x_max":686,"o":"m 89 718 l 210 718 l 210 265 q 242 124 210 165 q 349 82 275 82 q 494 140 429 82 q 547 205 529 171 q 565 293 565 239 l 565 718 l 686 718 l 686 0 l 567 0 l 567 111 q 453 10 514 42 q 321 -22 392 -22 q 144 44 199 -22 q 89 242 89 110 l 89 718 m 206 992 l 328 992 l 328 854 l 206 854 l 206 992 m 447 992 l 571 992 l 571 854 l 447 854 l 447 992 z "},"ý":{"ha":726,"x_min":10,"x_max":717,"o":"m 90 -153 q 168 -167 129 -167 q 237 -144 213 -167 q 285 -58 261 -121 l 314 18 l 10 718 l 150 718 l 376 154 l 583 718 l 717 718 l 403 -68 q 364 -153 383 -117 q 321 -217 344 -190 q 265 -256 297 -243 q 185 -269 232 -269 q 125 -265 151 -269 q 67 -250 99 -261 l 90 -153 m 419 1018 l 568 1018 l 381 821 l 261 821 l 419 1018 z "},"þ":{"ha":829,"x_min":93,"x_max":760,"o":"m 93 992 l 214 992 l 214 618 q 318 709 260 678 q 454 740 376 740 q 588 713 531 740 q 684 635 646 685 q 741 516 722 585 q 760 364 760 447 q 738 203 760 275 q 674 82 715 132 q 573 5 632 32 q 440 -22 514 -22 q 321 2 379 -22 q 214 89 263 26 l 214 -269 l 93 -269 l 93 992 m 213 339 q 228 220 213 269 q 272 139 244 171 q 339 92 300 107 q 424 78 378 78 q 506 93 468 78 q 572 142 544 108 q 616 231 600 176 q 632 363 632 285 q 615 495 632 442 q 569 581 597 549 q 506 626 542 613 q 433 640 471 640 q 346 624 386 640 q 276 577 306 608 q 229 498 246 546 q 213 388 213 450 l 213 339 z "},"ÿ":{"ha":726,"x_min":10,"x_max":717,"o":"m 90 -153 q 168 -167 129 -167 q 237 -144 213 -167 q 285 -58 261 -121 l 314 18 l 10 718 l 150 718 l 376 154 l 583 718 l 717 718 l 403 -68 q 364 -153 383 -117 q 321 -217 344 -190 q 265 -256 297 -243 q 185 -269 232 -269 q 125 -265 151 -269 q 67 -250 99 -261 l 90 -153 m 181 992 l 303 992 l 303 854 l 181 854 l 181 992 m 422 992 l 546 992 l 546 854 l 422 854 l 422 992 z "},"ı":{"ha":313,"x_min":96,"x_max":217,"o":"m 96 718 l 217 718 l 217 0 l 96 0 l 96 718 z "},"Œ":{"ha":1494,"x_min":75,"x_max":1447,"o":"m 817 147 q 691 19 764 64 q 508 -25 618 -25 q 338 9 417 -25 q 200 109 258 43 q 108 272 142 175 q 75 494 75 369 q 108 717 75 619 q 200 881 142 814 q 338 982 258 947 q 508 1017 417 1017 q 689 974 615 1017 q 817 849 763 932 l 817 992 l 1421 992 l 1421 879 l 940 879 l 940 568 l 1393 568 l 1393 454 l 940 454 l 940 113 l 1447 113 l 1426 0 l 817 0 l 817 147 m 513 85 q 642 114 586 85 q 737 196 699 143 q 795 323 775 249 q 817 489 815 397 q 797 659 817 582 q 739 792 778 736 q 644 877 700 847 q 513 907 588 907 q 383 877 439 907 q 288 793 326 847 q 228 663 249 739 q 208 496 208 588 q 228 327 208 403 q 287 197 249 251 q 382 114 325 143 q 513 85 439 85 z "},"œ":{"ha":1344,"x_min":69,"x_max":1278,"o":"m 1267 201 q 1175 38 1249 97 q 965 -22 1101 -22 q 796 23 863 -22 q 689 149 729 68 q 578 22 646 65 q 411 -22 511 -22 q 267 4 331 -22 q 160 79 204 31 q 93 199 117 128 q 69 357 69 269 q 94 515 69 444 q 165 636 119 586 q 274 713 210 686 q 415 740 338 740 q 581 698 513 740 q 690 574 650 656 q 803 699 733 657 q 965 740 874 740 q 1105 714 1046 740 q 1203 641 1164 688 q 1260 531 1242 594 q 1278 390 1278 467 l 1278 329 l 753 329 q 767 228 753 275 q 808 148 781 182 q 874 94 835 114 q 965 75 914 75 q 1094 109 1053 75 q 1150 201 1135 143 l 1267 201 m 413 78 q 509 99 468 78 q 577 157 550 119 q 617 246 604 194 q 629 360 629 297 q 617 472 629 421 q 578 561 604 524 q 512 619 553 599 q 413 640 471 640 q 315 619 356 640 q 249 562 275 599 q 210 474 222 525 q 197 360 197 422 q 210 246 197 297 q 248 157 222 194 q 315 99 274 119 q 413 78 356 78 m 1157 419 q 1146 513 1157 471 q 1111 584 1135 554 q 1051 631 1088 614 q 964 647 1015 647 q 819 589 872 647 q 756 419 765 531 l 1157 419 z "},"Š":{"ha":893,"x_min":54,"x_max":825,"o":"m 182 282 q 265 131 199 178 q 461 85 331 85 q 570 99 526 85 q 640 138 614 114 q 678 195 667 163 q 689 264 689 228 q 682 320 689 293 q 655 369 675 347 q 599 408 635 392 q 508 435 564 425 l 383 457 q 253 490 310 469 q 156 544 196 511 q 97 625 117 576 q 76 743 76 674 q 105 863 76 811 q 182 949 133 914 q 297 1000 231 983 q 442 1017 364 1017 q 606 995 540 1017 q 714 938 672 974 q 777 855 756 901 q 810 760 799 808 l 690 736 q 662 810 679 778 q 616 865 644 843 q 546 897 588 886 q 444 908 504 908 q 331 896 376 908 q 257 862 285 883 q 217 810 229 840 q 206 747 206 781 q 215 684 206 711 q 245 637 224 657 q 301 603 267 617 q 388 581 336 590 l 526 556 q 753 459 681 526 q 825 261 825 392 q 802 149 825 201 q 734 58 779 97 q 621 -3 689 19 q 461 -25 553 -25 q 302 -8 374 -25 q 178 47 231 10 q 93 143 125 85 q 54 282 61 201 l 182 282 m 226 1265 l 342 1265 l 449 1154 l 556 1265 l 668 1265 l 508 1079 l 388 1079 l 226 1265 z "},"š":{"ha":725,"x_min":54,"x_max":664,"o":"m 171 210 q 234 105 183 135 q 372 75 285 75 q 502 106 464 75 q 540 189 540 138 q 535 228 540 210 q 517 262 531 247 q 478 288 503 276 q 413 306 453 299 l 321 319 q 214 344 260 329 q 136 384 168 360 q 88 444 104 408 q 72 529 72 479 q 94 618 72 579 q 153 684 115 657 q 244 726 192 711 q 357 740 296 740 q 487 725 435 740 q 572 683 539 710 q 624 621 606 657 q 651 544 642 585 l 542 526 q 519 578 532 556 q 486 615 507 600 q 435 637 465 629 q 361 644 406 644 q 278 635 311 644 q 224 611 244 626 q 196 577 204 596 q 188 538 188 558 q 193 498 188 515 q 214 467 199 481 q 256 444 229 454 q 324 428 282 435 l 428 411 q 609 339 554 390 q 664 189 664 288 q 646 105 664 143 q 592 38 628 67 q 501 -6 556 10 q 375 -22 447 -22 q 253 -10 310 -22 q 154 30 197 3 q 85 101 111 57 q 54 210 58 146 l 171 210 m 425 824 l 304 824 l 144 1021 l 257 1021 l 365 899 l 474 1021 l 585 1021 l 425 824 z "},"Ÿ":{"ha":851,"x_min":18,"x_max":832,"o":"m 364 421 l 18 992 l 165 992 l 428 533 l 697 992 l 832 992 l 493 421 l 493 0 l 364 0 l 364 421 m 228 1239 l 354 1239 l 354 1097 l 228 1097 l 228 1239 m 476 1239 l 604 1239 l 604 1097 l 476 1097 l 476 1239 z "},"Ž":{"ha":814,"x_min":43,"x_max":781,"o":"m 43 99 l 613 879 l 53 879 l 53 992 l 764 992 l 764 892 l 196 114 l 781 114 l 761 0 l 43 0 l 43 99 m 188 1265 l 303 1265 l 410 1154 l 517 1265 l 629 1265 l 469 1079 l 349 1079 l 188 1265 z "},"ž":{"ha":649,"x_min":39,"x_max":628,"o":"m 39 90 l 457 621 l 47 621 l 47 718 l 607 718 l 607 628 l 189 97 l 628 97 l 613 0 l 39 0 l 39 90 m 390 824 l 269 824 l 110 1021 l 222 1021 l 331 899 l 439 1021 l 550 1021 l 390 824 z "},"ƒ":{"ha":822,"x_min":-29,"x_max":744,"o":"m 3 -124 q 45 -137 24 -132 q 90 -142 67 -142 q 174 -116 147 -142 q 215 -19 200 -90 l 336 597 l 224 597 l 240 699 l 356 699 l 369 772 q 447 933 390 879 q 617 986 504 986 q 685 978 654 986 q 744 960 717 971 l 713 865 q 670 880 692 875 q 621 885 649 885 q 532 859 563 885 q 488 763 501 833 l 475 699 l 658 699 l 642 597 l 456 597 l 333 -29 q 259 -190 313 -136 q 96 -243 206 -243 q 28 -236 60 -243 q -29 -218 -3 -229 l 3 -124 z "},"ȷ":{"ha":313,"x_min":-112,"x_max":217,"o":"m -92 -140 q -49 -151 -72 -147 q 3 -154 -26 -154 q 75 -126 54 -154 q 96 -40 96 -99 l 96 718 l 217 718 l 217 -8 q 208 -108 217 -62 q 178 -187 200 -154 q 119 -240 157 -221 q 22 -258 81 -258 q -53 -252 -21 -258 q -112 -236 -85 -246 l -92 -140 z "},"ˆ":{"ha":543,"x_min":51,"x_max":492,"o":"m 211 1018 l 332 1018 l 492 821 l 379 821 l 271 943 l 163 821 l 51 821 l 211 1018 z "},"ˇ":{"ha":543,"x_min":51,"x_max":492,"o":"m 332 824 l 211 824 l 51 1021 l 164 1021 l 272 899 l 381 1021 l 492 1021 l 332 824 z "},"˚":{"ha":543,"x_min":131,"x_max":414,"o":"m 131 957 q 172 1063 131 1026 q 271 1099 214 1099 q 324 1090 299 1099 q 370 1063 350 1081 q 402 1018 390 1044 q 414 957 414 992 q 402 896 414 922 q 370 852 390 869 q 324 826 350 835 q 271 818 299 818 q 172 853 214 818 q 131 957 131 888 m 271 886 q 320 903 303 886 q 338 957 338 921 q 320 1012 338 994 q 271 1029 303 1029 q 223 1012 240 1029 q 206 957 206 994 q 223 903 206 921 q 271 886 240 886 z "},"˜":{"ha":543,"x_min":28,"x_max":515,"o":"m 28 840 q 65 962 28 921 q 169 1003 103 1003 q 228 992 203 1003 q 276 967 254 981 q 320 942 299 953 q 365 931 342 931 q 413 949 399 931 q 426 999 426 967 l 515 999 q 478 877 515 918 q 374 836 440 836 q 315 848 340 836 q 267 873 289 860 q 224 898 244 886 q 179 910 203 910 q 131 891 144 910 q 117 840 117 872 l 28 840 z "},"–":{"ha":694,"x_min":0,"x_max":694,"o":"m 0 465 l 694 465 l 694 347 l 0 347 l 0 465 z "},"—":{"ha":1389,"x_min":0,"x_max":1389,"o":"m 0 465 l 1389 465 l 1389 347 l 0 347 l 0 465 z "},"‘":{"ha":289,"x_min":65,"x_max":235,"o":"m 139 992 l 235 992 l 194 693 l 65 693 l 139 992 z "},"’":{"ha":289,"x_min":54,"x_max":224,"o":"m 94 992 l 224 992 l 150 693 l 54 693 l 94 992 z "},"‚":{"ha":289,"x_min":60,"x_max":229,"o":"m 100 165 l 229 165 l 156 -135 l 60 -135 l 100 165 z "},"“":{"ha":511,"x_min":65,"x_max":457,"o":"m 139 992 l 235 992 l 194 693 l 65 693 l 139 992 m 361 992 l 457 992 l 417 693 l 288 693 l 361 992 z "},"”":{"ha":511,"x_min":54,"x_max":446,"o":"m 94 992 l 224 992 l 150 693 l 54 693 l 94 992 m 317 992 l 446 992 l 372 693 l 276 693 l 317 992 z "},"„":{"ha":511,"x_min":60,"x_max":451,"o":"m 100 165 l 229 165 l 156 -135 l 60 -135 l 100 165 m 322 165 l 451 165 l 378 -135 l 282 -135 l 322 165 z "},"†":{"ha":649,"x_min":26,"x_max":622,"o":"m 265 618 l 26 618 l 26 724 l 265 724 l 265 992 l 385 992 l 385 724 l 622 724 l 622 618 l 385 618 l 385 -121 l 265 -121 l 265 618 z "},"‡":{"ha":649,"x_min":26,"x_max":622,"o":"m 265 158 l 26 158 l 26 265 l 265 265 l 265 624 l 26 624 l 26 728 l 265 728 l 265 992 l 385 992 l 385 728 l 622 728 l 622 624 l 385 624 l 385 265 l 622 265 l 622 158 l 385 158 l 385 -121 l 265 -121 l 265 158 z "},"•":{"ha":501,"x_min":61,"x_max":442,"o":"m 61 507 q 76 583 61 549 q 115 643 90 618 q 176 682 140 668 q 253 696 211 696 q 328 682 293 696 q 388 643 363 668 q 427 583 413 618 q 442 507 442 549 q 427 428 442 464 q 388 368 413 393 q 328 329 363 343 q 253 315 293 315 q 176 329 211 315 q 115 368 140 343 q 76 428 90 393 q 61 507 61 464 z "},"…":{"ha":1172,"x_min":86,"x_max":1086,"o":"m 86 163 l 225 163 l 225 0 l 86 0 l 86 163 m 947 163 l 1086 163 l 1086 0 l 947 0 l 947 163 m 517 163 l 656 163 l 656 0 l 517 0 l 517 163 z "},"‰":{"ha":1836,"x_min":49,"x_max":1786,"o":"m 451 0 l 333 0 l 821 960 l 939 960 l 451 0 m 983 -26 q 887 -8 931 -26 q 810 46 843 10 q 760 138 778 82 q 742 272 742 194 q 760 405 742 349 q 812 498 779 461 q 888 553 844 535 q 983 571 932 571 q 1081 553 1036 571 q 1157 498 1125 535 q 1207 405 1189 461 q 1225 272 1225 349 q 1208 138 1225 194 q 1158 46 1190 82 q 1082 -8 1126 10 q 983 -26 1038 -26 m 983 72 q 1079 120 1046 72 q 1113 272 1113 168 q 1079 424 1113 375 q 983 472 1046 472 q 888 424 921 472 q 854 272 854 375 q 888 120 854 168 q 983 72 921 72 m 290 385 q 194 403 238 385 q 117 457 150 421 q 67 549 85 493 q 49 683 49 606 q 67 816 49 760 q 119 909 86 872 q 195 964 151 946 q 290 982 239 982 q 388 964 343 982 q 464 909 432 946 q 514 816 496 872 q 532 683 532 760 q 515 549 532 606 q 465 457 497 493 q 389 403 433 421 q 290 385 344 385 m 290 483 q 386 531 353 483 q 419 683 419 579 q 386 835 419 786 q 290 883 353 883 q 194 835 228 883 q 161 683 161 786 q 194 531 161 579 q 290 483 228 483 m 1544 -26 q 1448 -8 1492 -26 q 1372 46 1404 10 q 1321 138 1339 82 q 1303 272 1303 194 q 1322 405 1303 349 q 1373 498 1340 461 q 1449 553 1406 535 q 1544 571 1493 571 q 1642 553 1597 571 q 1718 498 1686 535 q 1768 405 1750 461 q 1786 272 1786 349 q 1769 138 1786 194 q 1719 46 1751 82 q 1643 -8 1688 10 q 1544 -26 1599 -26 m 1544 72 q 1640 120 1607 72 q 1674 272 1674 168 q 1640 424 1674 375 q 1544 472 1607 472 q 1449 424 1482 472 q 1415 272 1415 375 q 1449 120 1415 168 q 1544 72 1482 72 z "},"‹":{"ha":413,"x_min":60,"x_max":372,"o":"m 60 357 l 250 665 l 372 665 l 197 358 l 372 46 l 247 46 l 60 357 z "},"›":{"ha":413,"x_min":40,"x_max":353,"o":"m 215 353 l 40 665 l 165 665 l 353 354 l 163 46 l 40 46 l 215 353 z "},"⁄":{"ha":121,"x_min":-243,"x_max":363,"o":"m -125 0 l -243 0 l 244 960 l 363 960 l -125 0 z "},"⁰":{"ha":572,"x_min":44,"x_max":528,"o":"m 286 385 q 190 403 233 385 q 113 457 146 421 q 63 549 81 493 q 44 683 44 606 q 63 816 44 760 q 115 909 82 872 q 191 964 147 946 q 286 982 235 982 q 383 964 339 982 q 460 909 428 946 q 510 816 492 872 q 528 683 528 760 q 510 549 528 606 q 461 457 493 493 q 385 403 429 421 q 286 385 340 385 m 286 483 q 382 531 349 483 q 415 683 415 579 q 382 835 415 786 q 286 883 349 883 q 190 835 224 883 q 157 683 157 786 q 190 531 157 579 q 286 483 224 483 z "},"⁴":{"ha":572,"x_min":63,"x_max":504,"o":"m 63 604 l 339 961 l 435 961 l 435 618 l 504 618 l 490 536 l 435 536 l 435 407 l 335 407 l 335 536 l 63 536 l 63 604 m 335 618 l 335 828 l 172 618 l 335 618 z "},"€":{"ha":822,"x_min":28,"x_max":803,"o":"m 46 414 l 122 414 q 121 442 121 428 q 121 472 121 457 q 121 509 121 492 q 122 544 121 526 l 28 544 l 46 633 l 133 633 q 176 779 147 714 q 249 890 206 844 q 351 961 293 936 q 481 986 410 986 q 606 969 553 986 q 695 920 658 953 q 755 838 732 888 q 790 724 778 789 l 681 704 q 611 842 657 803 q 476 881 565 881 q 394 862 431 881 q 330 810 357 843 q 284 731 303 776 q 256 633 265 686 l 579 633 l 561 544 l 244 544 q 242 509 243 526 q 242 474 242 492 q 242 444 242 458 q 243 414 242 429 l 543 414 l 524 324 l 254 324 q 279 231 263 275 q 322 154 296 188 q 386 101 349 121 q 476 81 424 81 q 567 93 531 81 q 628 130 604 106 q 666 191 653 154 q 686 276 679 228 l 803 276 q 709 52 788 129 q 475 -25 631 -25 q 240 65 325 -25 q 131 324 154 156 l 28 324 l 46 414 z "},"™":{"ha":1258,"x_min":24,"x_max":1158,"o":"m 207 908 l 24 908 l 24 992 l 485 992 l 485 908 l 301 908 l 301 436 l 207 436 l 207 908 m 565 992 l 682 992 l 861 544 l 1043 992 l 1158 992 l 1158 436 l 1074 436 l 1074 854 l 900 436 l 821 436 l 650 853 l 650 436 l 565 436 l 565 992 z "},"−":{"ha":822,"x_min":111,"x_max":711,"o":"m 111 528 l 711 528 l 711 418 l 111 418 l 111 528 z "}}}
